<svg width="70" height="70" viewBox="0 0 70 70" fill="none" xmlns="http://www.w3.org/2000/svg">
<path d="M61.25 4.375H58.9037C58.9037 4.30544 58.9321 4.24375 58.926 4.172C58.9038 3.88395 58.8239 3.60331 58.691 3.34677C58.5582 3.09023 58.3751 2.86304 58.1526 2.6787C57.9302 2.49437 57.6729 2.35667 57.3961 2.27379C57.1194 2.1909 56.8288 2.16453 56.5416 2.19625C54.8911 2.35837 53.3622 3.13626 52.2594 4.375H39.0968C39.1076 4.30776 39.1149 4.24 39.1186 4.172C39.0948 3.88458 39.0139 3.60481 38.8806 3.34909C38.7472 3.09337 38.5642 2.86685 38.3421 2.68282C38.1201 2.49879 37.8635 2.36096 37.5875 2.2774C37.3115 2.19385 37.0215 2.16626 36.7347 2.19625C35.0841 2.35772 33.5551 3.13573 32.4529 4.375H19.6569C19.6677 4.30776 19.675 4.24 19.6788 4.172C19.6573 3.88373 19.5778 3.60275 19.4452 3.34589C19.3126 3.08903 19.1296 2.86156 18.907 2.6771C18.6844 2.49264 18.4269 2.35498 18.1499 2.27235C17.8729 2.18973 17.5821 2.16385 17.2948 2.19625C15.6443 2.35818 14.1155 3.13612 13.013 4.375H8.75C6.43017 4.37766 4.20612 5.30039 2.56576 6.94076C0.925391 8.58112 0.00266321 10.8052 0 13.125L0 61.25C0.00266321 63.5698 0.925391 65.7939 2.56576 67.4342C4.20612 69.0746 6.43017 69.9973 8.75 70H61.25C63.5698 69.9973 65.7939 69.0746 67.4342 67.4342C69.0746 65.7939 69.9973 63.5698 70 61.25V13.125C69.9973 10.8052 69.0746 8.58112 67.4342 6.94076C65.7939 5.30039 63.5698 4.37766 61.25 4.375ZM65.625 61.25C65.625 62.4103 65.1641 63.5231 64.3436 64.3436C63.5231 65.1641 62.4103 65.625 61.25 65.625H8.75C7.58968 65.625 6.47688 65.1641 5.65641 64.3436C4.83594 63.5231 4.375 62.4103 4.375 61.25V24.0625H48.125C48.7052 24.0625 49.2616 23.832 49.6718 23.4218C50.082 23.0116 50.3125 22.4552 50.3125 21.875C50.3125 21.2948 50.082 20.7384 49.6718 20.3282C49.2616 19.918 48.7052 19.6875 48.125 19.6875H4.375V13.125C4.375 11.9647 4.83594 10.8519 5.65641 10.0314C6.47688 9.21094 7.58968 8.75 8.75 8.75H11.3098C11.3196 10.4212 11.9624 12.031 13.1087 13.2471C14.255 14.4632 15.8196 15.1997 17.4873 15.3081L17.6282 15.3125C18.1966 15.3132 18.743 15.0926 19.1515 14.6974C19.5601 14.3023 19.7989 13.7636 19.8172 13.1955C19.8355 12.6274 19.6319 12.0744 19.2496 11.6538C18.8674 11.2331 18.3363 10.9778 17.7691 10.9419C17.2109 10.9021 16.6878 10.6552 16.3023 10.2498C15.9167 9.84429 15.6965 9.30941 15.6848 8.75H30.7453C30.7551 10.4215 31.3982 12.0316 32.545 13.2478C33.6917 14.464 35.2569 15.2002 36.925 15.3081L37.0663 15.3125C37.6347 15.3132 38.1811 15.0926 38.5897 14.6974C38.9983 14.3023 39.237 13.7636 39.2553 13.1955C39.2736 12.6274 39.0701 12.0744 38.6878 11.6538C38.3055 11.2331 37.7745 10.9778 37.2072 10.9419C36.6487 10.9023 36.125 10.6557 35.7388 10.2502C35.3527 9.8448 35.1318 9.30979 35.1194 8.75H50.5562C50.5625 10.4227 51.204 12.0306 52.351 13.2482C53.498 14.4657 55.0648 15.2021 56.7341 15.3081L56.875 15.3125C57.4434 15.3132 57.9898 15.0926 58.3984 14.6974C58.8069 14.3023 59.0457 13.7636 59.064 13.1955C59.0823 12.6274 58.8787 12.0744 58.4965 11.6538C58.1142 11.2331 57.5831 10.9778 57.0159 10.9419C56.4577 10.9024 55.9344 10.6556 55.5487 10.2501C55.1631 9.84454 54.943 9.3095 54.9316 8.75H61.25C62.4103 8.75 63.5231 9.21094 64.3436 10.0314C65.1641 10.8519 65.625 11.9647 65.625 13.125V19.6875H56.875C56.2948 19.6875 55.7384 19.918 55.3282 20.3282C54.918 20.7384 54.6875 21.2948 54.6875 21.875C54.6875 22.4552 54.918 23.0116 55.3282 23.4218C55.7384 23.832 56.2948 24.0625 56.875 24.0625H65.625V61.25Z" fill="black"/>
<path d="M35 26.2714C31.5388 26.2714 28.1554 27.2978 25.2775 29.2207C22.3997 31.1436 20.1566 33.8768 18.8321 37.0745C17.5076 40.2722 17.161 43.7909 17.8363 47.1855C18.5115 50.5802 20.1782 53.6984 22.6256 56.1458C25.0731 58.5932 28.1913 60.2599 31.5859 60.9352C34.9806 61.6104 38.4993 61.2639 41.697 59.9393C44.8947 58.6148 47.6278 56.3718 49.5507 53.4939C51.4736 50.6161 52.5 47.2326 52.5 43.7714C52.4951 39.1316 50.6498 34.6833 47.369 31.4024C44.0882 28.1216 39.6398 26.2763 35 26.2714ZM35 56.8964C32.4041 56.8964 29.8665 56.1267 27.7081 54.6845C25.5498 53.2423 23.8675 51.1924 22.8741 48.7942C21.8807 46.3959 21.6208 43.7569 22.1272 41.2109C22.6336 38.6649 23.8837 36.3262 25.7192 34.4907C27.5548 32.6551 29.8934 31.4051 32.4394 30.8986C34.9854 30.3922 37.6244 30.6521 40.0227 31.6455C42.421 32.6389 44.4709 34.3212 45.913 36.4796C47.3552 38.638 48.125 41.1756 48.125 43.7714C48.1212 47.2512 46.7372 50.5874 44.2766 53.048C41.816 55.5086 38.4798 56.8926 35 56.8964Z" fill="black"/>
<path d="M40.016 37.8499L32.8125 45.0533L29.9841 42.2249C29.7823 42.0159 29.5409 41.8493 29.274 41.7347C29.0072 41.62 28.7201 41.5597 28.4297 41.5571C28.1392 41.5546 27.8511 41.61 27.5823 41.7199C27.3135 41.8299 27.0692 41.9924 26.8639 42.1978C26.6585 42.4031 26.496 42.6474 26.386 42.9162C26.2761 43.1851 26.2207 43.4731 26.2232 43.7636C26.2258 44.054 26.2861 44.3411 26.4007 44.6079C26.5154 44.8748 26.682 45.1162 26.891 45.318L31.266 49.693C31.6762 50.1031 32.2325 50.3335 32.8125 50.3335C33.3926 50.3335 33.9489 50.1031 34.3591 49.693L43.1091 40.943C43.318 40.7412 43.4847 40.4998 43.5993 40.2329C43.714 39.9661 43.7743 39.679 43.7768 39.3886C43.7793 39.0981 43.724 38.8101 43.614 38.5412C43.504 38.2724 43.3416 38.0281 43.1362 37.8228C42.9308 37.6174 42.6866 37.4549 42.4177 37.3449C42.1489 37.235 41.8609 37.1796 41.5704 37.1821C41.2799 37.1847 40.9929 37.245 40.726 37.3597C40.4591 37.4743 40.2177 37.6409 40.016 37.8499Z" fill="#1ED760"/>
</svg>
