<svg width="30" height="30" viewBox="0 0 30 30" fill="none" xmlns="http://www.w3.org/2000/svg">
<path d="M27.252 12.5494H26.2453V12.4975H14.9975V17.4966H22.0605C21.0301 20.4066 18.2613 22.4956 14.9975 22.4956C10.8565 22.4956 7.49901 19.1381 7.49901 14.997C7.49901 10.856 10.8565 7.49852 14.9975 7.49852C16.909 7.49852 18.6481 8.21963 19.9722 9.39752L23.5071 5.8626C21.275 3.78238 18.2894 2.49951 14.9975 2.49951C8.09577 2.49951 2.5 8.09528 2.5 14.997C2.5 21.8988 8.09577 27.4946 14.9975 27.4946C21.8993 27.4946 27.4951 21.8988 27.4951 14.997C27.4951 14.1591 27.4088 13.3411 27.252 12.5494Z" fill="#FFC107"/>
<path d="M3.94092 9.18007L8.04698 12.1913C9.15801 9.44064 11.8487 7.49853 14.9975 7.49853C16.909 7.49853 18.648 8.21963 19.9721 9.39753L23.5071 5.8626C21.275 3.78238 18.2893 2.49951 14.9975 2.49951C10.1972 2.49951 6.03425 5.2096 3.94092 9.18007Z" fill="#FF3D00"/>
<path d="M14.997 27.4946C18.2251 27.4946 21.1583 26.2592 23.376 24.2502L19.508 20.9771C18.2111 21.9634 16.6264 22.4968 14.997 22.4955C11.7464 22.4955 8.98633 20.4228 7.94654 17.5303L3.87109 20.6703C5.93944 24.7176 10.1399 27.4946 14.997 27.4946Z" fill="#4CAF50"/>
<path d="M27.252 12.5494H26.2453V12.4976H14.9976V17.4966H22.0605C21.5676 18.8816 20.6798 20.0918 19.5067 20.9778L19.5085 20.9765L23.3765 24.2496C23.1028 24.4983 27.4951 21.2458 27.4951 14.9971C27.4951 14.1591 27.4089 13.3411 27.252 12.5494Z" fill="#1976D2"/>
</svg>
