<svg width="1728" height="1117" viewBox="0 0 1728 1117" fill="none" xmlns="http://www.w3.org/2000/svg">
<g clip-path="url(#clip0_23_98629)">
<circle cx="864" cy="558" r="373.5" stroke="#E4E4E4"/>
<circle cx="864" cy="558" r="561.5" stroke="#E4E4E4"/>
<circle cx="863.5" cy="558.5" r="752" stroke="#E4E4E4"/>
<circle cx="864" cy="558" r="940.5" stroke="#E4E4E4"/>
<rect width="24" height="24" transform="translate(299 645)" fill="white"/>
<mask id="mask0_23_98629" style="mask-type:alpha" maskUnits="userSpaceOnUse" x="299" y="645" width="24" height="24">
<rect x="299" y="645" width="24" height="24" fill="#D9D9D9"/>
</mask>
<g mask="url(#mask0_23_98629)">
<path d="M301 667V649C301 648.45 301.196 647.979 301.588 647.588C301.979 647.196 302.45 647 303 647H319C319.55 647 320.021 647.196 320.413 647.588C320.804 647.979 321 648.45 321 649V661C321 661.55 320.804 662.021 320.413 662.413C320.021 662.804 319.55 663 319 663H305L301 667ZM304.15 661H319V649H303V662.125L304.15 661Z" fill="#10100E"/>
</g>
<rect width="24" height="24" transform="translate(1213 451)" fill="white"/>
<mask id="mask1_23_98629" style="mask-type:alpha" maskUnits="userSpaceOnUse" x="1213" y="451" width="24" height="24">
<rect x="1213" y="451" width="24" height="24" fill="#D9D9D9"/>
</mask>
<g mask="url(#mask1_23_98629)">
<path d="M1215 473V455C1215 454.45 1215.2 453.979 1215.59 453.588C1215.98 453.196 1216.45 453 1217 453H1233C1233.55 453 1234.02 453.196 1234.41 453.588C1234.8 453.979 1235 454.45 1235 455V467C1235 467.55 1234.8 468.021 1234.41 468.413C1234.02 468.804 1233.55 469 1233 469H1219L1215 473ZM1218.15 467H1233V455H1217V468.125L1218.15 467Z" fill="#10100E"/>
</g>
<circle cx="120" cy="657" r="35" fill="#E4E4E4"/>
<g clip-path="url(#clip1_23_98629)">
<path d="M120 692C139.33 692 155 676.33 155 657C155 637.67 139.33 622 120 622C100.67 622 85 637.67 85 657C85 676.33 100.67 692 120 692Z" fill="#62BEE7"/>
<path d="M135.531 645.516H105.234V668.047H135.531V645.516Z" fill="#474E5E"/>
<path d="M145.047 672.859H95.0625V677.672H145.047V672.859Z" fill="#F3EEE4"/>
<path d="M142.641 668.047H97.4688V672.859H142.641V668.047Z" fill="#F3EEE4"/>
<path d="M107.094 648.688H102.281V664.766H107.094V648.688Z" fill="white"/>
<path d="M108.734 645.516H100.641V648.687H108.734V645.516Z" fill="#E8DCCA"/>
<path d="M139.359 664.875H131.266V668.047H139.359V664.875Z" fill="#E8DCCA"/>
<path d="M108.734 664.875H100.641V668.047H108.734V664.875Z" fill="#E8DCCA"/>
<path d="M139.359 645.516H131.266V648.687H139.359V645.516Z" fill="#E8DCCA"/>
<path opacity="0.1" d="M108.734 645.516H100.641V646.937H108.734V645.516Z" fill="#231F20"/>
<path opacity="0.1" d="M139.359 645.516H131.266V646.937H139.359V645.516Z" fill="#231F20"/>
<path d="M96.5938 640.703L120 627.797L143.406 640.703V645.516H96.5938V640.703Z" fill="#F3EEE4"/>
<path d="M100.094 643.438V643L120.656 631.625L141.328 643V643.438H100.094Z" fill="#E8DCCA"/>
<path opacity="0.1" d="M120.656 640.047C122.046 640.047 123.172 638.921 123.172 637.531C123.172 636.142 122.046 635.016 120.656 635.016C119.267 635.016 118.141 636.142 118.141 637.531C118.141 638.921 119.267 640.047 120.656 640.047Z" fill="#231F20"/>
<path opacity="0.1" d="M121.422 632.391L141.328 643.328V643L120.656 631.625L100.094 643V643.438H101.297L121.422 632.391Z" fill="#231F20"/>
<path d="M120 634.359C118.578 634.359 117.484 635.453 117.484 636.875C117.484 637.531 117.812 638.187 118.25 638.625L121.859 635.016C121.312 634.578 120.656 634.359 120 634.359Z" fill="white"/>
<path d="M118.25 638.625C118.688 639.062 119.344 639.391 120 639.391C121.422 639.391 122.516 638.297 122.516 636.875C122.516 636.219 122.187 635.563 121.75 635.125L118.25 638.625Z" fill="#F3EEE4"/>
<path opacity="0.1" d="M108.734 645.516H100.641V646.937H108.734V645.516Z" fill="#231F20"/>
<path opacity="0.1" d="M139.359 645.516H131.266V646.937H139.359V645.516Z" fill="#231F20"/>
<path opacity="0.1" d="M108.734 666.625H100.641V668.047H108.734V666.625Z" fill="#231F20"/>
<path opacity="0.1" d="M139.359 666.625H131.266V668.047H139.359V666.625Z" fill="#231F20"/>
<path opacity="0.1" d="M145.047 676.359H95.0625V677.781H145.047V676.359Z" fill="#231F20"/>
<path opacity="0.1" d="M142.641 671.547H97.4688V672.969H142.641V671.547Z" fill="#231F20"/>
<path d="M125.688 668.047V657.766C125.688 654.703 123.172 652.078 120 652.078C116.938 652.078 114.312 654.594 114.312 657.766V668.047H125.688Z" fill="white"/>
<path d="M120.328 652.844C121.422 652.953 122.406 653.391 123.172 654.047L120.328 656.891V652.844Z" fill="#506268"/>
<path d="M119.672 656.891L116.828 654.047C117.594 653.391 118.578 652.953 119.672 652.844V656.891Z" fill="#506268"/>
<path d="M123.719 654.484C124.375 655.25 124.813 656.234 124.922 657.328H120.875L123.719 654.484Z" fill="#506268"/>
<path d="M116.281 654.484L119.125 657.328H115.078C115.188 656.234 115.625 655.25 116.281 654.484Z" fill="#506268"/>
<path d="M120 658.094H115.078V668.156H120V658.094Z" fill="#EB5151"/>
<path d="M124.922 658.094H120V668.156H124.922V658.094Z" fill="#C64444"/>
<path d="M137.719 648.688H132.906V664.766H137.719V648.688Z" fill="white"/>
<path opacity="0.1" d="M137.719 648.688H135.312V664.766H137.719V648.688Z" fill="#231F20"/>
<path opacity="0.1" d="M107.094 648.688H104.688V664.766H107.094V648.688Z" fill="#231F20"/>
</g>
<circle cx="1474" cy="993" r="35" fill="#E4E4E4"/>
<g clip-path="url(#clip2_23_98629)">
<path d="M1474.96 1002.39C1476.09 1000.95 1479.32 999.961 1480.52 998.762C1483.07 996.218 1481.52 992.264 1478.13 988.871C1474.74 985.479 1470.78 983.933 1468.24 986.477C1467.04 987.676 1466.05 990.914 1464.61 992.04C1461.65 994.35 1458.18 993.308 1455.9 995.593C1452.36 999.126 1454.03 1003.55 1458.74 1008.26C1463.45 1012.97 1467.87 1014.64 1471.41 1011.1C1473.69 1008.82 1472.65 1005.35 1474.96 1002.39Z" fill="#F9B65F"/>
<path opacity="0.3" d="M1479.83 990.834C1481.03 993.143 1481.11 995.399 1479.45 997.056C1478.25 998.255 1475.01 999.245 1473.89 1000.69C1471.58 1003.65 1472.62 1007.11 1470.33 1009.4C1466.8 1012.93 1462.38 1011.27 1457.67 1006.55C1456.64 1005.53 1455.76 1004.52 1455.05 1003.53C1455.86 1005.06 1457.12 1006.64 1458.74 1008.26C1463.45 1012.97 1467.87 1014.64 1471.41 1011.1C1473.69 1008.82 1472.65 1005.35 1474.96 1002.39C1476.09 1000.95 1479.32 999.961 1480.52 998.762C1482.59 996.697 1481.96 993.703 1479.83 990.834Z" fill="#F9B65F"/>
<path d="M1490.86 979.155L1487.84 976.139L1470.57 993.417L1473.58 996.433L1490.86 979.155Z" fill="#935733"/>
<path opacity="0.3" d="M1489.82 978.113L1472.54 995.39L1473.58 996.433L1490.86 979.155L1489.82 978.113Z" fill="#935733"/>
<path d="M1470.65 999.698C1472.5 999.698 1474 998.198 1474 996.347C1474 994.496 1472.5 992.995 1470.65 992.995C1468.8 992.995 1467.3 994.496 1467.3 996.347C1467.3 998.198 1468.8 999.698 1470.65 999.698Z" fill="#794C2B"/>
<path opacity="0.31" d="M1470.65 999.094C1472.17 999.094 1473.4 997.864 1473.4 996.347C1473.4 994.829 1472.17 993.599 1470.65 993.599C1469.14 993.599 1467.91 994.829 1467.91 996.347C1467.91 997.864 1469.14 999.094 1470.65 999.094Z" fill="#794C2B"/>
<path d="M1470.65 997.657C1471.38 997.657 1471.96 997.07 1471.96 996.347C1471.96 995.623 1471.38 995.037 1470.65 995.037C1469.93 995.037 1469.34 995.623 1469.34 996.347C1469.34 997.07 1469.93 997.657 1470.65 997.657Z" fill="#AE9676"/>
<path d="M1461.46 1001.8L1465.2 1005.54C1465.52 1005.86 1466.05 1005.86 1466.37 1005.54L1466.79 1005.12C1467.12 1004.8 1467.12 1004.27 1466.79 1003.95L1463.05 1000.21C1462.73 999.884 1462.2 999.884 1461.88 1000.21L1461.46 1000.63C1461.14 1000.95 1461.14 1001.48 1461.46 1001.8Z" fill="#794C2B"/>
<path d="M1486.77 981.928L1485.07 980.23C1484.58 979.736 1484.53 978.951 1484.96 978.402L1488.79 973.528C1489.3 972.877 1490.27 972.82 1490.85 973.404L1493.6 976.147C1494.18 976.732 1494.12 977.696 1493.47 978.207L1488.6 982.037C1488.05 982.469 1487.26 982.422 1486.77 981.928Z" fill="#794C2B"/>
<path opacity="0.31" d="M1493.6 976.147L1493.35 975.906C1493.27 976.061 1493.15 976.204 1493 976.322L1488.13 980.152C1487.58 980.583 1486.79 980.536 1486.3 980.043L1484.84 978.586C1484.55 979.116 1484.63 979.789 1485.07 980.23L1486.77 981.928C1487.26 982.422 1488.05 982.469 1488.6 982.037L1493.47 978.207C1494.12 977.696 1494.18 976.732 1493.6 976.147Z" fill="#794C2B"/>
</g>
<circle cx="1426" cy="523" r="35" fill="#E4E4E4"/>
<g clip-path="url(#clip3_23_98629)">
<path d="M1426 529.993H1432.49C1433.66 529.993 1434.79 530.412 1435.68 531.173L1441.96 536.554C1442.38 536.914 1442.99 536.976 1443.46 536.68C1449.99 532.549 1442.07 516.244 1440.5 513.284C1440.33 512.97 1440.06 511.266 1439.72 511.144L1434.45 509.226C1433.99 509.057 1433.47 509.119 1433.06 509.392C1433.06 509.392 1431.57 510.343 1431.24 510.343H1425.45H1420.95C1420.61 510.343 1418.94 509.392 1418.94 509.392C1418.53 509.119 1418.01 509.057 1417.55 509.226L1412.28 511.144C1411.94 511.266 1411.67 512.97 1411.5 513.284C1409.93 516.244 1402.02 532.549 1408.54 536.68C1409.01 536.975 1409.62 536.914 1410.04 536.554L1416.32 531.173C1417.21 530.412 1418.34 529.993 1419.51 529.993H1426Z" fill="#38454F"/>
<path d="M1431.29 526.556C1432.81 526.556 1434.04 525.325 1434.04 523.807C1434.04 522.288 1432.81 521.057 1431.29 521.057C1429.77 521.057 1428.54 522.288 1428.54 523.807C1428.54 525.325 1429.77 526.556 1431.29 526.556Z" fill="#546A79"/>
<path d="M1415.48 519.682C1417 519.682 1418.23 518.451 1418.23 516.933C1418.23 515.414 1417 514.183 1415.48 514.183C1413.96 514.183 1412.73 515.414 1412.73 516.933C1412.73 518.451 1413.96 519.682 1415.48 519.682Z" fill="#546A79"/>
<path d="M1436.1 515.558C1436.86 515.558 1437.47 514.942 1437.47 514.183C1437.47 513.424 1436.86 512.808 1436.1 512.808C1435.34 512.808 1434.72 513.424 1434.72 514.183C1434.72 514.942 1435.34 515.558 1436.1 515.558Z" fill="#EBBA16"/>
<path d="M1433.35 518.307C1434.11 518.307 1434.72 517.692 1434.72 516.932C1434.72 516.173 1434.11 515.558 1433.35 515.558C1432.59 515.558 1431.97 516.173 1431.97 516.932C1431.97 517.692 1432.59 518.307 1433.35 518.307Z" fill="#7383BF"/>
<path d="M1438.85 518.307C1439.61 518.307 1440.22 517.692 1440.22 516.932C1440.22 516.173 1439.61 515.558 1438.85 515.558C1438.09 515.558 1437.47 516.173 1437.47 516.932C1437.47 517.692 1438.09 518.307 1438.85 518.307Z" fill="#D75A4A"/>
<path d="M1436.1 521.057C1436.86 521.057 1437.47 520.442 1437.47 519.682C1437.47 518.923 1436.86 518.307 1436.1 518.307C1435.34 518.307 1434.72 518.923 1434.72 519.682C1434.72 520.442 1435.34 521.057 1436.1 521.057Z" fill="#61B872"/>
<path d="M1427.85 511.051C1427.85 510.919 1427.84 510.79 1427.81 510.665C1427.79 510.541 1427.74 510.433 1427.67 510.343C1426.86 510.343 1426.24 510.343 1425.96 510.343C1425.9 510.348 1425.85 510.364 1425.79 510.364C1425.73 510.364 1425.67 510.349 1425.62 510.343C1425.61 510.343 1425.45 510.343 1425.45 510.343H1423.91C1423.84 510.421 1423.8 510.511 1423.77 510.618C1423.71 510.892 1423.71 511.186 1423.77 511.492C1423.94 512.296 1424.62 512.944 1425.43 513.082C1426.72 513.304 1427.85 512.309 1427.85 511.051Z" fill="#AFB6BB"/>
<path d="M1424.76 522.193H1422.5V519.934C1422.5 519.663 1422.28 519.444 1422.01 519.444H1420.24C1419.97 519.444 1419.75 519.664 1419.75 519.934V522.193H1417.49C1417.22 522.193 1417 522.413 1417 522.684V524.451C1417 524.723 1417.22 524.942 1417.49 524.942H1419.75V527.201C1419.75 527.473 1419.97 527.692 1420.24 527.692H1422.01C1422.28 527.692 1422.5 527.472 1422.5 527.201V524.942H1424.76C1425.03 524.942 1425.25 524.722 1425.25 524.451V522.684C1425.25 522.413 1425.03 522.193 1424.76 522.193Z" fill="#546A79"/>
</g>
<path d="M331.76 651.2V649.54H335.52V664H333.68V651.2H331.76ZM338.646 656.62C338.646 654.327 339.02 652.54 339.766 651.26C340.513 649.967 341.82 649.32 343.686 649.32C345.54 649.32 346.84 649.967 347.586 651.26C348.333 652.54 348.706 654.327 348.706 656.62C348.706 658.953 348.333 660.767 347.586 662.06C346.84 663.353 345.54 664 343.686 664C341.82 664 340.513 663.353 339.766 662.06C339.02 660.767 338.646 658.953 338.646 656.62ZM346.906 656.62C346.906 655.46 346.826 654.48 346.666 653.68C346.52 652.867 346.206 652.213 345.726 651.72C345.26 651.227 344.58 650.98 343.686 650.98C342.78 650.98 342.086 651.227 341.606 651.72C341.14 652.213 340.826 652.867 340.666 653.68C340.52 654.48 340.446 655.46 340.446 656.62C340.446 657.82 340.52 658.827 340.666 659.64C340.826 660.453 341.14 661.107 341.606 661.6C342.086 662.093 342.78 662.34 343.686 662.34C344.58 662.34 345.26 662.093 345.726 661.6C346.206 661.107 346.52 660.453 346.666 659.64C346.826 658.827 346.906 657.82 346.906 656.62Z" fill="#10100E"/>
<path d="M1246.2 459.18C1246.29 457.953 1246.77 456.993 1247.62 456.3C1248.47 455.607 1249.58 455.26 1250.94 455.26C1251.85 455.26 1252.63 455.427 1253.28 455.76C1253.95 456.08 1254.45 456.52 1254.78 457.08C1255.13 457.64 1255.3 458.273 1255.3 458.98C1255.3 459.807 1255.06 460.52 1254.58 461.12C1254.11 461.72 1253.5 462.107 1252.74 462.28V462.38C1253.61 462.593 1254.29 463.013 1254.8 463.64C1255.31 464.267 1255.56 465.087 1255.56 466.1C1255.56 466.86 1255.39 467.547 1255.04 468.16C1254.69 468.76 1254.17 469.233 1253.48 469.58C1252.79 469.927 1251.95 470.1 1250.98 470.1C1249.57 470.1 1248.41 469.733 1247.5 469C1246.59 468.253 1246.09 467.2 1245.98 465.84H1247.74C1247.83 466.64 1248.16 467.293 1248.72 467.8C1249.28 468.307 1250.03 468.56 1250.96 468.56C1251.89 468.56 1252.6 468.32 1253.08 467.84C1253.57 467.347 1253.82 466.713 1253.82 465.94C1253.82 464.94 1253.49 464.22 1252.82 463.78C1252.15 463.34 1251.15 463.12 1249.8 463.12H1249.34V461.6H1249.82C1251.05 461.587 1251.97 461.387 1252.6 461C1253.23 460.6 1253.54 459.987 1253.54 459.16C1253.54 458.453 1253.31 457.887 1252.84 457.46C1252.39 457.033 1251.73 456.82 1250.88 456.82C1250.05 456.82 1249.39 457.033 1248.88 457.46C1248.37 457.887 1248.07 458.46 1247.98 459.18H1246.2ZM1257.8 468.54C1259.49 467.18 1260.82 466.067 1261.78 465.2C1262.74 464.32 1263.54 463.407 1264.2 462.46C1264.86 461.5 1265.2 460.56 1265.2 459.64C1265.2 458.773 1264.98 458.093 1264.56 457.6C1264.14 457.093 1263.47 456.84 1262.54 456.84C1261.63 456.84 1260.92 457.127 1260.42 457.7C1259.92 458.26 1259.66 459.013 1259.62 459.96H1257.86C1257.91 458.467 1258.36 457.313 1259.22 456.5C1260.07 455.687 1261.17 455.28 1262.52 455.28C1263.89 455.28 1264.98 455.66 1265.78 456.42C1266.59 457.18 1267 458.227 1267 459.56C1267 460.667 1266.66 461.747 1266 462.8C1265.34 463.84 1264.6 464.76 1263.76 465.56C1262.92 466.347 1261.84 467.267 1260.54 468.32H1267.42V469.84H1257.8V468.54Z" fill="#10100E"/>
<rect x="828.5" y="906.5" width="71" height="49" rx="24.5" fill="#F2F2F2"/>
<rect x="828.5" y="906.5" width="71" height="49" rx="24.5" stroke="#E4E4E4"/>
<g clip-path="url(#clip4_23_98629)">
<path d="M844.188 927.625C844.313 927.833 844.354 928.042 844.354 928.292V939.625C844.354 939.875 844.271 940.125 844.146 940.333H856.396C857.271 940.333 857.979 939.625 857.979 938.75C857.979 937.875 857.271 937.167 856.396 937.167C857.271 937.167 857.979 936.458 857.979 935.583C857.979 934.708 857.271 934 856.396 934C857.271 934 857.979 933.292 857.979 932.417C857.979 931.542 857.271 930.833 856.396 930.833H856.354C857.229 930.833 857.938 930.125 857.938 929.25C857.938 928.375 857.229 927.667 856.354 927.667H851.354C852.271 926.417 852.813 924.833 852.813 923.167V922.583C852.813 921.708 852.104 921 851.229 921C850.354 921 849.646 921.708 849.646 922.583V923.042C849.646 925.5 847.646 927.5 845.188 927.5C844.688 927.5 844.229 927.583 844.188 927.625Z" fill="#FFD15C"/>
<path d="M843.456 926.917H838V941H843.456C843.911 941 844.283 940.625 844.283 940.167V927.751C844.283 927.292 843.911 926.917 843.456 926.917Z" fill="#40596B"/>
<path d="M841.813 939.5C842.365 939.5 842.813 939.052 842.813 938.5C842.813 937.948 842.365 937.5 841.813 937.5C841.26 937.5 840.812 937.948 840.812 938.5C840.812 939.052 841.26 939.5 841.813 939.5Z" fill="white"/>
</g>
<path d="M867.02 936.54C868.713 935.18 870.04 934.067 871 933.2C871.96 932.32 872.767 931.407 873.42 930.46C874.087 929.5 874.42 928.56 874.42 927.64C874.42 926.773 874.207 926.093 873.78 925.6C873.367 925.093 872.693 924.84 871.76 924.84C870.853 924.84 870.147 925.127 869.64 925.7C869.147 926.26 868.88 927.013 868.84 927.96H867.08C867.133 926.467 867.587 925.313 868.44 924.5C869.293 923.687 870.393 923.28 871.74 923.28C873.113 923.28 874.2 923.66 875 924.42C875.813 925.18 876.22 926.227 876.22 927.56C876.22 928.667 875.887 929.747 875.22 930.8C874.567 931.84 873.82 932.76 872.98 933.56C872.14 934.347 871.067 935.267 869.76 936.32H876.64V937.84H867.02V936.54ZM878.704 927.18C878.797 925.953 879.271 924.993 880.124 924.3C880.977 923.607 882.084 923.26 883.444 923.26C884.351 923.26 885.131 923.427 885.784 923.76C886.451 924.08 886.951 924.52 887.284 925.08C887.631 925.64 887.804 926.273 887.804 926.98C887.804 927.807 887.564 928.52 887.084 929.12C886.617 929.72 886.004 930.107 885.244 930.28V930.38C886.111 930.593 886.797 931.013 887.304 931.64C887.811 932.267 888.064 933.087 888.064 934.1C888.064 934.86 887.891 935.547 887.544 936.16C887.197 936.76 886.677 937.233 885.984 937.58C885.291 937.927 884.457 938.1 883.484 938.1C882.071 938.1 880.911 937.733 880.004 937C879.097 936.253 878.591 935.2 878.484 933.84H880.244C880.337 934.64 880.664 935.293 881.224 935.8C881.784 936.307 882.531 936.56 883.464 936.56C884.397 936.56 885.104 936.32 885.584 935.84C886.077 935.347 886.324 934.713 886.324 933.94C886.324 932.94 885.991 932.22 885.324 931.78C884.657 931.34 883.651 931.12 882.304 931.12H881.844V929.6H882.324C883.551 929.587 884.477 929.387 885.104 929C885.731 928.6 886.044 927.987 886.044 927.16C886.044 926.453 885.811 925.887 885.344 925.46C884.891 925.033 884.237 924.82 883.384 924.82C882.557 924.82 881.891 925.033 881.384 925.46C880.877 925.887 880.577 926.46 880.484 927.18H878.704Z" fill="#10100E"/>
<rect x="1072.5" y="1042.5" width="67" height="49" rx="24.5" fill="#F2F2F2"/>
<rect x="1072.5" y="1042.5" width="67" height="49" rx="24.5" stroke="#E4E4E4"/>
<g clip-path="url(#clip5_23_98629)">
<path d="M1099.42 1065.31C1100.47 1065.31 1101.32 1066.16 1101.32 1067.21C1101.32 1068.25 1100.47 1069.11 1099.42 1069.11C1098.38 1069.11 1097.53 1068.25 1097.53 1067.21C1097.53 1066.16 1098.38 1065.31 1099.42 1065.31Z" fill="#D35400"/>
<path d="M1093.52 1060.42L1098.1 1065C1097.72 1065.22 1097.41 1065.54 1097.19 1065.92L1092.85 1061.57L1092.86 1061.56C1093.18 1061.24 1093.41 1060.85 1093.52 1060.42Z" fill="#FFCD02"/>
<path d="M1098.55 1069.63L1094.5 1073.67C1094.35 1073.64 1094.2 1073.62 1094.04 1073.62H1092.4L1097.33 1068.7C1097.63 1069.12 1098.05 1069.45 1098.55 1069.63Z" fill="#FFCD02"/>
<path d="M1084.73 1063.4L1087.37 1066.04C1087.06 1066.26 1086.69 1066.38 1086.29 1066.38C1085.79 1066.38 1085.31 1066.18 1084.95 1065.82C1084.59 1065.46 1084.4 1064.99 1084.4 1064.48C1084.4 1064.09 1084.51 1063.71 1084.73 1063.4Z" fill="#FFCD02"/>
<path d="M1095.73 1075.99V1076.16H1084.95V1075.99C1084.95 1075.06 1085.71 1074.3 1086.64 1074.3H1094.04C1094.97 1074.3 1095.73 1075.06 1095.73 1075.99Z" fill="#FFA800"/>
<path d="M1092.38 1058.39C1092.74 1058.75 1092.94 1059.23 1092.94 1059.73C1092.94 1060.24 1092.74 1060.72 1092.38 1061.08L1091.26 1062.2C1091.17 1062.29 1091.14 1062.44 1091.19 1062.56C1091.91 1064.4 1091.53 1066.48 1090.24 1067.95L1082.83 1060.53C1084.3 1059.24 1086.37 1058.87 1088.21 1059.59C1088.34 1059.64 1088.48 1059.61 1088.58 1059.51L1089.7 1058.39C1090.06 1058.03 1090.53 1057.84 1091.04 1057.84C1091.55 1057.84 1092.02 1058.03 1092.38 1058.39Z" fill="#FFA800"/>
<path d="M1099.42 1064.63C1100.84 1064.63 1102 1065.79 1102 1067.21C1102 1068.63 1100.84 1069.78 1099.42 1069.78C1099.4 1069.78 1099.38 1069.78 1099.35 1069.78L1095.2 1073.93C1095.92 1074.34 1096.41 1075.11 1096.41 1075.99V1076.5C1096.41 1076.69 1096.26 1076.84 1096.07 1076.84H1084.61C1084.42 1076.84 1084.27 1076.69 1084.27 1076.5V1075.99C1084.27 1074.69 1085.33 1073.62 1086.64 1073.62H1091.44L1097 1068.07C1096.9 1067.8 1096.85 1067.51 1096.85 1067.21C1096.85 1067 1096.87 1066.8 1096.92 1066.6L1092.37 1062.05L1091.89 1062.52C1092.64 1064.67 1092.1 1067.06 1090.49 1068.67C1090.42 1068.74 1090.34 1068.77 1090.25 1068.77C1090.16 1068.77 1090.08 1068.74 1090.01 1068.67L1087.86 1066.53C1087.4 1066.88 1086.85 1067.06 1086.29 1067.06C1085.63 1067.06 1084.97 1066.8 1084.47 1066.3C1083.99 1065.82 1083.72 1065.17 1083.72 1064.48C1083.72 1063.91 1083.9 1063.36 1084.25 1062.91L1082.1 1060.77C1081.97 1060.63 1081.97 1060.42 1082.1 1060.29C1083.71 1058.67 1086.11 1058.13 1088.25 1058.88L1089.22 1057.91C1089.7 1057.43 1090.35 1057.16 1091.04 1057.16C1091.73 1057.16 1092.37 1057.43 1092.86 1057.91C1093.3 1058.36 1093.57 1058.93 1093.61 1059.55L1098.77 1064.72C1098.98 1064.66 1099.2 1064.63 1099.42 1064.63ZM1101.32 1067.21C1101.32 1066.16 1100.47 1065.31 1099.42 1065.31C1098.38 1065.31 1097.53 1066.16 1097.53 1067.21C1097.53 1068.25 1098.38 1069.11 1099.42 1069.11C1100.47 1069.11 1101.32 1068.25 1101.32 1067.21ZM1094.5 1073.67L1098.55 1069.63C1098.05 1069.45 1097.63 1069.12 1097.33 1068.7L1092.4 1073.62H1094.04C1094.2 1073.62 1094.35 1073.64 1094.5 1073.67ZM1098.1 1065L1093.52 1060.42C1093.41 1060.85 1093.18 1061.24 1092.86 1061.56L1092.85 1061.57L1097.19 1065.92C1097.41 1065.54 1097.72 1065.22 1098.1 1065ZM1095.73 1076.16V1075.99C1095.73 1075.06 1094.97 1074.3 1094.04 1074.3H1086.64C1085.71 1074.3 1084.95 1075.06 1084.95 1075.99V1076.16H1095.73ZM1092.94 1059.73C1092.94 1059.23 1092.74 1058.75 1092.38 1058.39C1092.02 1058.03 1091.55 1057.84 1091.04 1057.84C1090.53 1057.84 1090.06 1058.03 1089.7 1058.39L1088.58 1059.51C1088.48 1059.61 1088.34 1059.64 1088.21 1059.59C1086.37 1058.87 1084.3 1059.24 1082.83 1060.53L1090.24 1067.95C1091.53 1066.48 1091.91 1064.4 1091.19 1062.56C1091.14 1062.44 1091.17 1062.29 1091.26 1062.2L1092.38 1061.08C1092.74 1060.72 1092.94 1060.24 1092.94 1059.73ZM1087.37 1066.04L1084.73 1063.4C1084.51 1063.71 1084.4 1064.09 1084.4 1064.48C1084.4 1064.99 1084.59 1065.46 1084.95 1065.82C1085.31 1066.18 1085.79 1066.38 1086.29 1066.38C1086.69 1066.38 1087.06 1066.26 1087.37 1066.04Z" fill="black"/>
</g>
<path d="M1110.76 1061.2V1059.54H1114.52V1074H1112.68V1061.2H1110.76ZM1119.99 1070.12C1120.12 1070.88 1120.43 1071.47 1120.91 1071.88C1121.4 1072.29 1122.06 1072.5 1122.89 1072.5C1123.99 1072.5 1124.81 1072.07 1125.33 1071.2C1125.86 1070.33 1126.11 1068.87 1126.09 1066.82C1125.81 1067.42 1125.34 1067.89 1124.69 1068.24C1124.03 1068.57 1123.31 1068.74 1122.51 1068.74C1121.61 1068.74 1120.81 1068.56 1120.11 1068.2C1119.41 1067.83 1118.87 1067.29 1118.47 1066.58C1118.07 1065.87 1117.87 1065.02 1117.87 1064.02C1117.87 1062.59 1118.28 1061.45 1119.11 1060.58C1119.93 1059.7 1121.11 1059.26 1122.63 1059.26C1124.49 1059.26 1125.8 1059.87 1126.55 1061.08C1127.31 1062.29 1127.69 1064.1 1127.69 1066.5C1127.69 1068.18 1127.53 1069.57 1127.23 1070.66C1126.93 1071.75 1126.43 1072.59 1125.71 1073.16C1125 1073.73 1124.03 1074.02 1122.79 1074.02C1121.43 1074.02 1120.37 1073.65 1119.61 1072.92C1118.85 1072.19 1118.41 1071.25 1118.31 1070.12H1119.99ZM1122.81 1067.2C1123.7 1067.2 1124.43 1066.93 1125.01 1066.38C1125.58 1065.82 1125.87 1065.07 1125.87 1064.12C1125.87 1063.12 1125.59 1062.31 1125.03 1061.7C1124.47 1061.09 1123.68 1060.78 1122.67 1060.78C1121.73 1060.78 1120.99 1061.07 1120.43 1061.66C1119.88 1062.25 1119.61 1063.02 1119.61 1063.98C1119.61 1064.95 1119.88 1065.73 1120.43 1066.32C1120.97 1066.91 1121.77 1067.2 1122.81 1067.2Z" fill="#10100E"/>
<circle cx="1596" cy="711" r="19.5" fill="#EDFEF3" stroke="#00A63D"/>
<circle cx="224" cy="952" r="19.5" fill="#EDFEF3" stroke="#00A63D"/>
<circle cx="417" cy="220" r="19.5" fill="#FFF1F2" stroke="#E5555E"/>
<circle cx="127" cy="410" r="19.5" fill="#FFF1F2" stroke="#E5555E"/>
<mask id="mask2_23_98629" style="mask-type:alpha" maskUnits="userSpaceOnUse" x="1584" y="699" width="24" height="24">
<rect x="1584" y="699" width="24" height="24" fill="#D9D9D9"/>
</mask>
<g mask="url(#mask2_23_98629)">
<path d="M1594.6 712.8L1592.45 710.65C1592.27 710.467 1592.03 710.375 1591.75 710.375C1591.47 710.375 1591.23 710.467 1591.05 710.65C1590.87 710.833 1590.78 711.067 1590.78 711.35C1590.78 711.633 1590.87 711.867 1591.05 712.05L1593.9 714.9C1594.1 715.1 1594.33 715.2 1594.6 715.2C1594.87 715.2 1595.1 715.1 1595.3 714.9L1600.95 709.25C1601.13 709.067 1601.23 708.833 1601.23 708.55C1601.23 708.267 1601.13 708.033 1600.95 707.85C1600.77 707.667 1600.53 707.575 1600.25 707.575C1599.97 707.575 1599.73 707.667 1599.55 707.85L1594.6 712.8ZM1596 721C1594.62 721 1593.32 720.737 1592.1 720.212C1590.88 719.687 1589.82 718.975 1588.92 718.075C1588.02 717.175 1587.31 716.117 1586.79 714.9C1586.26 713.683 1586 712.383 1586 711C1586 709.617 1586.26 708.317 1586.79 707.1C1587.31 705.883 1588.02 704.825 1588.92 703.925C1589.82 703.025 1590.88 702.313 1592.1 701.788C1593.32 701.262 1594.62 701 1596 701C1597.38 701 1598.68 701.262 1599.9 701.788C1601.12 702.313 1602.18 703.025 1603.08 703.925C1603.98 704.825 1604.69 705.883 1605.21 707.1C1605.74 708.317 1606 709.617 1606 711C1606 712.383 1605.74 713.683 1605.21 714.9C1604.69 716.117 1603.98 717.175 1603.08 718.075C1602.18 718.975 1601.12 719.687 1599.9 720.212C1598.68 720.737 1597.38 721 1596 721Z" fill="#00A63D"/>
</g>
<mask id="mask3_23_98629" style="mask-type:alpha" maskUnits="userSpaceOnUse" x="212" y="940" width="24" height="24">
<rect x="212" y="940" width="24" height="24" fill="#D9D9D9"/>
</mask>
<g mask="url(#mask3_23_98629)">
<path d="M222.6 953.8L220.45 951.65C220.267 951.467 220.033 951.375 219.75 951.375C219.467 951.375 219.233 951.467 219.05 951.65C218.867 951.833 218.775 952.067 218.775 952.35C218.775 952.633 218.867 952.867 219.05 953.05L221.9 955.9C222.1 956.1 222.333 956.2 222.6 956.2C222.867 956.2 223.1 956.1 223.3 955.9L228.95 950.25C229.133 950.067 229.225 949.833 229.225 949.55C229.225 949.267 229.133 949.033 228.95 948.85C228.767 948.667 228.533 948.575 228.25 948.575C227.967 948.575 227.733 948.667 227.55 948.85L222.6 953.8ZM224 962C222.617 962 221.317 961.737 220.1 961.212C218.883 960.687 217.825 959.975 216.925 959.075C216.025 958.175 215.313 957.117 214.788 955.9C214.262 954.683 214 953.383 214 952C214 950.617 214.262 949.317 214.788 948.1C215.313 946.883 216.025 945.825 216.925 944.925C217.825 944.025 218.883 943.313 220.1 942.788C221.317 942.262 222.617 942 224 942C225.383 942 226.683 942.262 227.9 942.788C229.117 943.313 230.175 944.025 231.075 944.925C231.975 945.825 232.687 946.883 233.212 948.1C233.737 949.317 234 950.617 234 952C234 953.383 233.737 954.683 233.212 955.9C232.687 957.117 231.975 958.175 231.075 959.075C230.175 959.975 229.117 960.687 227.9 961.212C226.683 961.737 225.383 962 224 962Z" fill="#00A63D"/>
</g>
<mask id="mask4_23_98629" style="mask-type:alpha" maskUnits="userSpaceOnUse" x="405" y="210" width="24" height="24">
<rect x="405" y="210" width="24" height="24" fill="#D9D9D9"/>
</mask>
<g mask="url(#mask4_23_98629)">
<path d="M417 230.325C416.767 230.325 416.529 230.283 416.288 230.2C416.046 230.117 415.833 229.983 415.65 229.8L413.925 228.225C412.158 226.608 410.563 225.004 409.138 223.413C407.712 221.821 407 220.067 407 218.15C407 216.583 407.525 215.275 408.575 214.225C409.625 213.175 410.933 212.65 412.5 212.65C413.383 212.65 414.217 212.838 415 213.213C415.783 213.588 416.45 214.1 417 214.75C417.55 214.1 418.217 213.588 419 213.213C419.783 212.838 420.617 212.65 421.5 212.65C423.067 212.65 424.375 213.175 425.425 214.225C426.475 215.275 427 216.583 427 218.15C427 220.067 426.292 221.825 424.875 223.425C423.458 225.025 421.85 226.633 420.05 228.25L418.35 229.8C418.167 229.983 417.954 230.117 417.713 230.2C417.471 230.283 417.233 230.325 417 230.325Z" fill="#DF2B36"/>
</g>
<mask id="mask5_23_98629" style="mask-type:alpha" maskUnits="userSpaceOnUse" x="115" y="400" width="24" height="24">
<rect x="115" y="400" width="24" height="24" fill="#D9D9D9"/>
</mask>
<g mask="url(#mask5_23_98629)">
<path d="M127 420.325C126.767 420.325 126.529 420.283 126.288 420.2C126.046 420.117 125.833 419.983 125.65 419.8L123.925 418.225C122.158 416.608 120.563 415.004 119.138 413.413C117.712 411.821 117 410.067 117 408.15C117 406.583 117.525 405.275 118.575 404.225C119.625 403.175 120.933 402.65 122.5 402.65C123.383 402.65 124.217 402.838 125 403.213C125.783 403.588 126.45 404.1 127 404.75C127.55 404.1 128.217 403.588 129 403.213C129.783 402.838 130.617 402.65 131.5 402.65C133.067 402.65 134.375 403.175 135.425 404.225C136.475 405.275 137 406.583 137 408.15C137 410.067 136.292 411.825 134.875 413.425C133.458 415.025 131.85 416.633 130.05 418.25L128.35 419.8C128.167 419.983 127.954 420.117 127.713 420.2C127.471 420.283 127.233 420.325 127 420.325Z" fill="#DF2B36"/>
</g>
<circle cx="312" cy="449" r="35" fill="#E4E4E4"/>
<path d="M320.85 436.466C320.938 437.964 318.14 442.374 318.14 442.374C316.447 435.15 307.433 429.854 307.433 429.854C307.433 429.854 309.566 432.382 305.025 439.774C300.483 447.166 302.522 451.786 302.522 451.786C303.506 455.374 307.486 458.06 312.253 458.06C317.02 458.06 320.573 455.17 321.984 451.786H321.988C324.922 445.257 320.85 436.466 320.85 436.466Z" fill="#FAAE3B"/>
<path d="M308.127 453.91C308.127 451.59 312.22 446.795 312.22 446.795C312.22 446.795 316.312 451.595 316.312 453.91C316.312 456.226 314.48 458.109 312.22 458.109C309.96 458.109 308.127 456.23 308.127 453.91Z" fill="#EE3734"/>
<path d="M297.132 468.113C298.078 467.878 298.533 466.435 298.149 464.889C297.765 463.344 296.686 462.282 295.741 462.517C294.795 462.752 294.339 464.196 294.723 465.741C295.108 467.286 296.186 468.348 297.132 468.113Z" fill="#513B2C"/>
<path d="M295.68 462.543C295.702 462.537 295.72 462.522 295.742 462.517L295.677 462.533L295.68 462.543Z" fill="white"/>
<path d="M297.069 468.129L297.134 468.113C297.112 468.118 297.089 468.113 297.066 468.118L297.069 468.129Z" fill="white"/>
<path d="M329.325 457.137C329.234 456.769 329.071 456.423 328.846 456.118C328.621 455.814 328.339 455.556 328.014 455.361C327.69 455.166 327.33 455.036 326.955 454.98C326.581 454.924 326.199 454.943 325.831 455.034L295.742 462.52C296.689 462.285 297.767 463.346 298.151 464.892C298.535 466.438 298.08 467.88 297.134 468.113L327.222 460.631C327.59 460.54 327.936 460.378 328.241 460.153C328.546 459.928 328.803 459.645 328.999 459.32C329.194 458.996 329.323 458.636 329.379 458.261C329.435 457.886 329.417 457.504 329.325 457.137Z" fill="#B3814B"/>
<path d="M329.272 465.737C329.656 464.191 329.201 462.748 328.255 462.513C327.309 462.278 326.231 463.34 325.847 464.885C325.463 466.431 325.918 467.874 326.864 468.109C327.81 468.344 328.888 467.282 329.272 465.737Z" fill="#513B2C"/>
<path d="M328.32 462.543C328.298 462.537 328.28 462.522 328.258 462.517L328.323 462.533L328.32 462.543Z" fill="white"/>
<path d="M326.931 468.129L326.866 468.113C326.888 468.118 326.911 468.113 326.934 468.118L326.931 468.129Z" fill="white"/>
<path d="M294.675 457.137C294.766 456.769 294.929 456.423 295.154 456.118C295.379 455.814 295.661 455.556 295.986 455.361C296.31 455.166 296.67 455.036 297.045 454.98C297.419 454.924 297.801 454.943 298.169 455.034L328.258 462.52C327.311 462.285 326.233 463.346 325.849 464.892C325.465 466.438 325.92 467.881 326.866 468.116L296.778 460.631C296.41 460.54 296.064 460.378 295.759 460.153C295.454 459.928 295.197 459.645 295.001 459.32C294.806 458.996 294.677 458.636 294.621 458.261C294.565 457.886 294.583 457.504 294.675 457.137Z" fill="#B3814B"/>
<circle cx="372" cy="834" r="35" fill="#E4E4E4"/>
<path d="M377.693 816.191H366.307V818.888H377.693V816.191Z" fill="#62B3B1"/>
<path d="M366.982 816.191H365.633V822.855H366.982V816.191Z" fill="#FAB43E"/>
<path d="M378.367 816.191H377.019V822.855H378.367V816.191Z" fill="#FAB43E"/>
<path d="M392 828.185L385.772 821.956H358.228L352 828.185V845.581L358.228 851.809H385.772L392 845.581V828.185Z" fill="#FFD691"/>
<path d="M389.303 824.654H354.697V849.113H389.303V824.654Z" fill="#62B3B1"/>
<path d="M392 845.581V849.112C392 850.595 390.787 851.809 389.303 851.809H385.772V849.112V848.277C385.772 846.794 386.985 845.581 388.468 845.581H389.303H392Z" fill="#FAB43E"/>
<path d="M358.228 849.112V851.809H354.697C353.214 851.809 352 850.595 352 849.112V845.581H354.697H355.532C357.015 845.581 358.228 846.794 358.228 848.277L358.228 849.112Z" fill="#FAB43E"/>
<path d="M358.228 824.653V825.488C358.228 826.971 357.015 828.185 355.532 828.185H354.697H352V824.653C352 823.17 353.214 821.956 354.697 821.956H358.228L358.228 824.653Z" fill="#FAB43E"/>
<path d="M392 824.653V828.185H389.303H388.468C386.985 828.185 385.772 826.971 385.772 825.488V824.653V821.956H389.303C390.787 821.956 392 823.17 392 824.653Z" fill="#FAB43E"/>
<circle cx="65" cy="1063" r="35" fill="#E4E4E4"/>
<path d="M74.1249 1053.5L72.2749 1051C72.1559 1050.84 72.0009 1050.71 71.8228 1050.63C71.6445 1050.54 71.4481 1050.5 71.2499 1050.5H58.9999C58.8193 1050.5 58.6409 1050.54 58.4769 1050.61C58.3129 1050.69 58.1673 1050.8 58.0499 1050.94L55.8999 1053.44C55.7152 1053.67 55.6178 1053.96 55.6249 1054.25V1063.36C55.6282 1065.54 56.4945 1067.63 58.0339 1069.17C59.5734 1070.71 61.6603 1071.57 63.8374 1071.58H66.1624C68.3394 1071.57 70.4264 1070.71 71.9659 1069.17C73.5053 1067.63 74.3715 1065.54 74.3749 1063.36V1054.25C74.3749 1053.98 74.2871 1053.72 74.1249 1053.5Z" fill="#FFCC80"/>
<path d="M82.225 1078.48L77.225 1072.23C77.08 1072.04 76.8858 1071.9 76.6648 1071.82C76.4437 1071.74 76.2047 1071.73 75.975 1071.78L65 1074.25L54.025 1071.75C53.7954 1071.7 53.5564 1071.72 53.3353 1071.8C53.1142 1071.87 52.92 1072.02 52.775 1072.2L47.775 1078.45C47.6299 1078.63 47.539 1078.85 47.5125 1079.08C47.486 1079.32 47.525 1079.55 47.625 1079.76C47.7227 1079.98 47.8805 1080.16 48.0799 1080.3C48.2792 1080.43 48.5117 1080.5 48.75 1080.5H81.25C81.4857 1080.5 81.7163 1080.43 81.9153 1080.31C82.1143 1080.18 82.2737 1080 82.375 1079.79C82.475 1079.58 82.514 1079.34 82.4875 1079.11C82.461 1078.88 82.3702 1078.66 82.225 1078.48Z" fill="#01579B"/>
<path d="M81.6124 1050.5L65.3624 1045.5C65.1248 1045.44 64.875 1045.44 64.6374 1045.5L48.3874 1050.5C48.1217 1050.58 47.8902 1050.75 47.7295 1050.97C47.5689 1051.2 47.4881 1051.47 47.4999 1051.75C47.4895 1052.03 47.5739 1052.31 47.7395 1052.53C47.905 1052.76 48.142 1052.92 48.4124 1053L64.6624 1057.5C64.8824 1057.57 65.1174 1057.57 65.3374 1057.5L81.5874 1053C81.8578 1052.92 82.0948 1052.76 82.2604 1052.53C82.4259 1052.31 82.5103 1052.03 82.4999 1051.75C82.5118 1051.47 82.4309 1051.2 82.2703 1050.97C82.1095 1050.75 81.8782 1050.58 81.6124 1050.5Z" fill="#01579B"/>
<path d="M59.025 1050.5C58.8445 1050.5 58.666 1050.54 58.502 1050.61C58.338 1050.69 58.1924 1050.8 58.075 1050.94L55.925 1053.44C55.7314 1053.66 55.625 1053.95 55.625 1054.25V1063.36C55.6283 1065.54 56.4946 1067.63 58.034 1069.17C59.5735 1070.71 61.6604 1071.57 63.8375 1071.58H65V1050.5H59.025Z" fill="#FFE0B2"/>
<path d="M54.025 1071.75C53.7954 1071.7 53.5564 1071.72 53.3353 1071.8C53.1142 1071.87 52.92 1072.02 52.775 1072.2L47.775 1078.45C47.6299 1078.63 47.539 1078.85 47.5125 1079.08C47.486 1079.32 47.525 1079.55 47.625 1079.76C47.7227 1079.98 47.8805 1080.16 48.0799 1080.3C48.2792 1080.43 48.5117 1080.5 48.75 1080.5H65V1074.25L54.025 1071.75Z" fill="#0277BD"/>
<path d="M64.6374 1045.5L48.3874 1050.5C48.1217 1050.58 47.8902 1050.75 47.7295 1050.97C47.5689 1051.2 47.4881 1051.47 47.4999 1051.75C47.4895 1052.03 47.5739 1052.31 47.7395 1052.53C47.905 1052.76 48.142 1052.92 48.4124 1053L64.6624 1057.5C64.7742 1057.52 64.8882 1057.52 64.9999 1057.5V1045.5C64.8798 1045.48 64.7575 1045.48 64.6374 1045.5Z" fill="#0277BD"/>
<path d="M48.4124 1053L55.6249 1054.95V1063.36C55.6282 1065.54 56.4945 1067.63 58.0339 1069.17C59.5734 1070.71 61.6603 1071.57 63.8374 1071.57H66.1624C68.3395 1071.57 70.4264 1070.71 71.9659 1069.17C73.5053 1067.63 74.3717 1065.54 74.3749 1063.36V1054.95L81.5874 1053C81.8578 1052.92 82.0948 1052.76 82.2604 1052.53C82.4259 1052.31 82.5103 1052.03 82.4999 1051.75C82.5118 1051.47 82.4309 1051.2 82.2703 1050.97C82.1095 1050.75 81.8782 1050.58 81.6124 1050.5L65.3624 1045.5C65.1248 1045.44 64.875 1045.44 64.6374 1045.5L48.3874 1050.5C48.1217 1050.58 47.8902 1050.75 47.7295 1050.97C47.5689 1051.2 47.4881 1051.47 47.4999 1051.75C47.4895 1052.03 47.5739 1052.31 47.7395 1052.53C47.905 1052.76 48.142 1052.92 48.4124 1053ZM71.8749 1063.36C71.8717 1064.88 71.2687 1066.33 70.1982 1067.4C69.1275 1068.47 67.6764 1069.07 66.1624 1069.07H63.8374C62.3234 1069.07 60.8723 1068.47 59.8017 1067.4C58.7312 1066.33 58.1282 1064.88 58.1249 1063.36V1055.64L64.6624 1057.45C64.8824 1057.52 65.1174 1057.52 65.3374 1057.45L71.8749 1055.64V1063.36ZM64.9999 1048.06L76.7999 1051.75L64.9999 1054.95L53.1999 1051.75L64.9999 1048.06Z" fill="#263238"/>
<path d="M77.225 1072.23C77.08 1072.04 76.8858 1071.9 76.6648 1071.82C76.4437 1071.74 76.2047 1071.73 75.975 1071.78L65 1074.25L54.025 1071.75C53.7954 1071.7 53.5564 1071.72 53.3353 1071.8C53.1142 1071.87 52.92 1072.02 52.775 1072.2L47.775 1078.45C47.6299 1078.63 47.539 1078.85 47.5125 1079.08C47.486 1079.32 47.525 1079.55 47.625 1079.76C47.7227 1079.98 47.8805 1080.16 48.0799 1080.3C48.2792 1080.43 48.5117 1080.5 48.75 1080.5H81.25C81.4857 1080.5 81.7163 1080.43 81.9153 1080.31C82.1143 1080.18 82.2737 1080 82.375 1079.79C82.475 1079.58 82.514 1079.34 82.4875 1079.11C82.461 1078.88 82.3702 1078.66 82.225 1078.48L77.225 1072.23ZM51.35 1078L54.2375 1074.39L64.725 1076.75C64.9064 1076.79 65.0935 1076.79 65.275 1076.75L75.7625 1074.41L78.65 1078H51.35Z" fill="#263238"/>
<circle cx="1533" cy="219" r="35" fill="#E4E4E4"/>
<g clip-path="url(#clip6_23_98629)">
<path d="M1533.06 199.062C1533.04 199.062 1533.02 199.065 1533 199.066C1532.98 199.066 1532.96 199.062 1532.94 199.062C1521.93 199.062 1513 207.988 1513 218.999C1513 230.01 1521.93 238.938 1532.94 238.938C1532.96 238.938 1532.98 238.935 1533 238.933C1533.02 238.933 1533.04 238.938 1533.06 238.938C1544.07 238.938 1553 230.011 1553 219C1553 207.989 1544.07 199.062 1533.06 199.062ZM1534.37 204.849L1539.56 204.252C1541.52 205.12 1543.27 206.367 1544.73 207.899L1545.39 213.188L1538.98 214.873L1534.37 211.666L1534.37 204.849ZM1521.27 207.899C1522.73 206.367 1524.48 205.12 1526.44 204.252L1531.63 204.849V211.666L1527.02 214.873L1520.61 213.188L1521.27 207.899ZM1518.84 226.803C1517.72 224.796 1517.03 222.529 1516.87 220.113L1519.6 215.549L1526.1 217.256L1527.75 222.68L1523.51 228.986L1518.84 226.803ZM1536.69 234.701C1535.52 234.97 1534.31 235.125 1533.06 235.127C1533.04 235.127 1533.02 235.125 1533 235.125C1532.98 235.125 1532.96 235.127 1532.94 235.127C1531.69 235.125 1530.48 234.97 1529.31 234.701L1525.65 230.368L1529.78 224.212H1533H1536.22L1540.35 230.368L1536.69 234.701ZM1542.49 228.985L1538.25 222.678L1539.9 217.255L1546.4 215.548L1549.13 220.111C1548.97 222.526 1548.28 224.795 1547.16 226.801L1542.49 228.985Z" fill="black"/>
</g>
</g>
<defs>
<clipPath id="clip0_23_98629">
<rect width="1728" height="1117" fill="white"/>
</clipPath>
<clipPath id="clip1_23_98629">
<rect width="70" height="70" fill="white" transform="translate(85 622)"/>
</clipPath>
<clipPath id="clip2_23_98629">
<rect width="40" height="40" fill="white" transform="translate(1454 973)"/>
</clipPath>
<clipPath id="clip3_23_98629">
<rect width="40" height="40" fill="white" transform="translate(1406 503)"/>
</clipPath>
<clipPath id="clip4_23_98629">
<rect width="20" height="20" fill="white" transform="translate(838 921)"/>
</clipPath>
<clipPath id="clip5_23_98629">
<rect width="20" height="20" fill="white" transform="translate(1082 1057)"/>
</clipPath>
<clipPath id="clip6_23_98629">
<rect width="40" height="40" fill="white" transform="translate(1513 199)"/>
</clipPath>
</defs>
</svg>
