<svg width="70" height="70" viewBox="0 0 70 70" fill="none" xmlns="http://www.w3.org/2000/svg">
<circle cx="35" cy="35" r="35" fill="#E4E4E4"/>
<path d="M40.6925 17.1909H29.3074V19.8876H40.6925V17.1909Z" fill="#62B3B1"/>
<path d="M29.9816 17.1912H28.6333V23.8555H29.9816V17.1912Z" fill="#FAB43E"/>
<path d="M41.3668 17.1912H40.0186V23.8555H41.3668V17.1912Z" fill="#FAB43E"/>
<path d="M55 29.1846L48.7717 22.9563H21.2283L15 29.1846V46.5805L21.2283 52.8088H48.7716L55 46.5806V29.1846Z" fill="#FFD691"/>
<path d="M52.3033 25.6536H17.6965V50.1129H52.3033V25.6536Z" fill="#62B3B1"/>
<path d="M55.0001 46.5806V50.1123C55.0001 51.5954 53.7866 52.8089 52.3034 52.8089H48.7717V50.1123V49.2772C48.7717 47.7941 49.9852 46.5806 51.4684 46.5806H52.3034H55.0001Z" fill="#FAB43E"/>
<path d="M21.2283 50.1123V52.8089H17.6966C16.2135 52.8089 15 51.5954 15 50.1123V46.5806H17.6966H18.5317C20.0148 46.5806 21.2284 47.7941 21.2284 49.2772L21.2283 50.1123Z" fill="#FAB43E"/>
<path d="M21.2283 25.6529V26.488C21.2283 27.9711 20.0148 29.1847 18.5316 29.1847H17.6966H15V25.6529C15 24.1698 16.2135 22.9563 17.6966 22.9563H21.2284L21.2283 25.6529Z" fill="#FAB43E"/>
<path d="M55.0001 25.6529V29.1847H52.3034H51.4684C49.9852 29.1847 48.7717 27.9711 48.7717 26.488V25.6529V22.9563H52.3034C53.7866 22.9563 55.0001 24.1698 55.0001 25.6529Z" fill="#FAB43E"/>
</svg>
