<svg width="51" height="30" viewBox="0 0 51 30" fill="none" xmlns="http://www.w3.org/2000/svg">
<rect width="24" height="24" transform="translate(0 3)" fill="white"/>
<mask id="mask0_24_98861" style="mask-type:alpha" maskUnits="userSpaceOnUse" x="0" y="3" width="24" height="24">
<rect y="3" width="24" height="24" fill="#D9D9D9"/>
</mask>
<g mask="url(#mask0_24_98861)">
<path d="M2 25V7C2 6.45 2.19583 5.97917 2.5875 5.5875C2.97917 5.19583 3.45 5 4 5H20C20.55 5 21.0208 5.19583 21.4125 5.5875C21.8042 5.97917 22 6.45 22 7V19C22 19.55 21.8042 20.0208 21.4125 20.4125C21.0208 20.8042 20.55 21 20 21H6L2 25ZM5.15 19H20V7H4V20.125L5.15 19Z" fill="#10100E"/>
</g>
<path d="M32.76 9.2V7.54H36.52V22H34.68V9.2H32.76ZM39.6463 14.62C39.6463 12.3267 40.0196 10.54 40.7663 9.26C41.5129 7.96667 42.8196 7.32 44.6863 7.32C46.5396 7.32 47.8396 7.96667 48.5863 9.26C49.3329 10.54 49.7062 12.3267 49.7062 14.62C49.7062 16.9533 49.3329 18.7667 48.5863 20.06C47.8396 21.3533 46.5396 22 44.6863 22C42.8196 22 41.5129 21.3533 40.7663 20.06C40.0196 18.7667 39.6463 16.9533 39.6463 14.62ZM47.9063 14.62C47.9063 13.46 47.8263 12.48 47.6663 11.68C47.5196 10.8667 47.2063 10.2133 46.7263 9.72C46.2596 9.22667 45.5796 8.98 44.6863 8.98C43.7796 8.98 43.0863 9.22667 42.6063 9.72C42.1396 10.2133 41.8263 10.8667 41.6663 11.68C41.5196 12.48 41.4463 13.46 41.4463 14.62C41.4463 15.82 41.5196 16.8267 41.6663 17.64C41.8263 18.4533 42.1396 19.1067 42.6063 19.6C43.0863 20.0933 43.7796 20.34 44.6863 20.34C45.5796 20.34 46.2596 20.0933 46.7263 19.6C47.2063 19.1067 47.5196 18.4533 47.6663 17.64C47.8263 16.8267 47.9063 15.82 47.9063 14.62Z" fill="#10100E"/>
</svg>
