<svg width="70" height="70" viewBox="0 0 70 70" fill="none" xmlns="http://www.w3.org/2000/svg">
<circle cx="35" cy="35" r="35" fill="#E4E4E4"/>
<path d="M43.8495 22.4665C43.9383 23.9641 41.1399 28.3745 41.1399 28.3745C39.4471 21.1497 30.4327 15.8545 30.4327 15.8545C30.4327 15.8545 32.5663 18.3825 28.0247 25.7745C23.4831 33.1665 25.5215 37.7865 25.5215 37.7865C26.5055 41.3737 30.4855 44.0601 35.2527 44.0601C40.0199 44.0601 43.5727 41.1705 44.9839 37.7865H44.9879C47.9215 31.2569 43.8495 22.4665 43.8495 22.4665Z" fill="#FAAE3B"/>
<path d="M31.1272 39.9104C31.1272 37.5904 35.22 32.7952 35.22 32.7952C35.22 32.7952 39.312 37.5952 39.312 39.9104C39.312 42.2256 37.48 44.1088 35.22 44.1088C32.96 44.1088 31.1272 42.2296 31.1272 39.9104Z" fill="#EE3734"/>
<path d="M20.1316 54.1132C21.0775 53.8781 21.5329 52.4347 21.1487 50.8894C20.7646 49.3441 19.6864 48.282 18.7405 48.5171C17.7946 48.7523 17.3392 50.1956 17.7234 51.7409C18.1075 53.2862 19.1857 54.3483 20.1316 54.1132Z" fill="#513B2C"/>
<path d="M18.68 48.5432C18.7016 48.5368 18.72 48.5224 18.7424 48.5168L18.6768 48.5328L18.68 48.5432Z" fill="white"/>
<path d="M20.0688 54.1288L20.1344 54.1128C20.112 54.1184 20.0888 54.1128 20.0664 54.1184L20.0688 54.1288Z" fill="white"/>
<path d="M52.3248 43.1367C52.2339 42.7691 52.0713 42.423 51.8464 42.1182C51.6214 41.8135 51.3386 41.5561 51.0141 41.3609C50.6896 41.1656 50.3298 41.0362 49.9552 40.9802C49.5806 40.9241 49.1987 40.9425 48.8312 41.0343L18.7424 48.5199C19.6888 48.2847 20.7672 49.3463 21.1512 50.8919C21.5352 52.4375 21.08 53.8799 20.1344 54.1127L50.2224 46.6311C50.5902 46.5402 50.9363 46.3775 51.2411 46.1526C51.5459 45.9276 51.8033 45.6447 51.9986 45.3201C52.1939 44.9955 52.3233 44.6356 52.3792 44.2609C52.4352 43.8863 52.4167 43.5042 52.3248 43.1367Z" fill="#B3814B"/>
<path d="M52.272 51.7368C52.6562 50.1915 52.2008 48.7481 51.2549 48.513C50.309 48.2779 49.2308 49.34 48.8467 50.8853C48.4625 52.4306 48.9179 53.874 49.8638 54.1091C50.8097 54.3442 51.8879 53.2821 52.272 51.7368Z" fill="#513B2C"/>
<path d="M51.32 48.5432C51.2984 48.5368 51.28 48.5224 51.2576 48.5168L51.3232 48.5328L51.32 48.5432Z" fill="white"/>
<path d="M49.9313 54.1288L49.8657 54.1128C49.8881 54.1184 49.9113 54.1128 49.9337 54.1184L49.9313 54.1288Z" fill="white"/>
<path d="M17.6751 43.1367C17.7661 42.7691 17.9287 42.423 18.1536 42.1182C18.3785 41.8135 18.6613 41.5561 18.9858 41.3609C19.3104 41.1656 19.6702 41.0362 20.0448 40.9802C20.4193 40.9241 20.8013 40.9425 21.1687 41.0343L51.2575 48.5199C50.3111 48.2847 49.2327 49.3463 48.8487 50.8919C48.4647 52.4375 48.9199 53.8807 49.8655 54.1159L19.7775 46.6311C19.4098 46.5402 19.0636 46.3775 18.7588 46.1526C18.454 45.9276 18.1966 45.6447 18.0013 45.3201C17.806 44.9955 17.6767 44.6356 17.6207 44.2609C17.5647 43.8863 17.5832 43.5042 17.6751 43.1367Z" fill="#B3814B"/>
</svg>
