<svg width="70" height="70" viewBox="0 0 70 70" fill="none" xmlns="http://www.w3.org/2000/svg">
<circle cx="35" cy="35" r="35" fill="#E4E4E4"/>
<path d="M44.1249 25.5L42.2749 23C42.1559 22.8413 42.0009 22.7132 41.8228 22.6263C41.6445 22.5394 41.4481 22.4961 41.2499 22.5H28.9999C28.8193 22.5 28.6409 22.5391 28.4769 22.6146C28.3129 22.6901 28.1673 22.8003 28.0499 22.9375L25.8999 25.4375C25.7152 25.6674 25.6178 25.9552 25.6249 26.25V35.3625C25.6282 37.5395 26.4945 39.6265 28.0339 41.1659C29.5734 42.7054 31.6603 43.5717 33.8374 43.575H36.1624C38.3394 43.5717 40.4264 42.7054 41.9659 41.1659C43.5053 39.6265 44.3715 37.5395 44.3749 35.3625V26.25C44.3749 25.9795 44.2871 25.7164 44.1249 25.5Z" fill="#FFCC80"/>
<path d="M52.225 50.4751L47.225 44.2251C47.08 44.0402 46.8858 43.8998 46.6648 43.8203C46.4437 43.7407 46.2047 43.7251 45.975 43.7751L35 46.2501L24.025 43.7501C23.7954 43.7001 23.5564 43.7157 23.3353 43.7953C23.1142 43.8748 22.92 44.0152 22.775 44.2001L17.775 50.4501C17.6299 50.6331 17.539 50.853 17.5125 51.085C17.486 51.3168 17.525 51.5517 17.625 51.7626C17.7227 51.98 17.8805 52.165 18.0799 52.2956C18.2792 52.4262 18.5117 52.4972 18.75 52.5001H51.25C51.4857 52.4995 51.7163 52.4322 51.9153 52.3061C52.1143 52.1801 52.2737 52.0003 52.375 51.7876C52.475 51.5767 52.514 51.3418 52.4875 51.11C52.461 50.878 52.3702 50.6581 52.225 50.4751Z" fill="#01579B"/>
<path d="M51.6124 22.5L35.3624 17.5C35.1248 17.4375 34.875 17.4375 34.6374 17.5L18.3874 22.5C18.1217 22.5802 17.8902 22.7467 17.7295 22.973C17.5689 23.1993 17.4881 23.4727 17.4999 23.75C17.4895 24.0306 17.5739 24.3064 17.7395 24.5332C17.905 24.76 18.142 24.9244 18.4124 25L34.6624 29.5C34.8824 29.5667 35.1174 29.5667 35.3374 29.5L51.5874 25C51.8578 24.9244 52.0948 24.76 52.2604 24.5332C52.4259 24.3064 52.5103 24.0306 52.4999 23.75C52.5118 23.4727 52.4309 23.1993 52.2703 22.973C52.1095 22.7467 51.8782 22.5802 51.6124 22.5Z" fill="#01579B"/>
<path d="M29.025 22.5C28.8445 22.5 28.666 22.5391 28.502 22.6146C28.338 22.6901 28.1924 22.8003 28.075 22.9375L25.925 25.4375C25.7314 25.6639 25.625 25.9521 25.625 26.25V35.3625C25.6283 37.5396 26.4946 39.6265 28.034 41.166C29.5735 42.7054 31.6604 43.5718 33.8375 43.575H35V22.5H29.025Z" fill="#FFE0B2"/>
<path d="M24.025 43.7501C23.7954 43.7001 23.5564 43.7157 23.3353 43.7953C23.1142 43.8748 22.92 44.0152 22.775 44.2001L17.775 50.4501C17.6299 50.6331 17.539 50.853 17.5125 51.085C17.486 51.3168 17.525 51.5517 17.625 51.7626C17.7227 51.98 17.8805 52.165 18.0799 52.2956C18.2792 52.4262 18.5117 52.4972 18.75 52.5001H35V46.2501L24.025 43.7501Z" fill="#0277BD"/>
<path d="M34.6374 17.5L18.3874 22.5C18.1217 22.5802 17.8902 22.7466 17.7295 22.9729C17.5689 23.1993 17.4881 23.4727 17.4999 23.75C17.4895 24.0305 17.5739 24.3064 17.7395 24.5332C17.905 24.7599 18.142 24.9244 18.4124 25L34.6624 29.4999C34.7742 29.5182 34.8882 29.5182 34.9999 29.4999V17.5C34.8798 17.4808 34.7575 17.4808 34.6374 17.5Z" fill="#0277BD"/>
<path d="M18.4124 25L25.6249 26.95V35.3625C25.6282 37.5396 26.4945 39.6266 28.0339 41.166C29.5734 42.7053 31.6603 43.5717 33.8374 43.575H36.1624C38.3395 43.5717 40.4264 42.7053 41.9659 41.166C43.5053 39.6266 44.3717 37.5396 44.3749 35.3625V26.95L51.5874 25C51.8578 24.9244 52.0948 24.76 52.2604 24.5332C52.4259 24.3064 52.5103 24.0306 52.4999 23.75C52.5118 23.4727 52.4309 23.1993 52.2703 22.973C52.1095 22.7467 51.8782 22.5802 51.6124 22.5L35.3624 17.5C35.1248 17.4375 34.875 17.4375 34.6374 17.5L18.3874 22.5C18.1217 22.5802 17.8902 22.7467 17.7295 22.973C17.5689 23.1993 17.4881 23.4727 17.4999 23.75C17.4895 24.0306 17.5739 24.3064 17.7395 24.5332C17.905 24.76 18.142 24.9244 18.4124 25ZM41.8749 35.3625C41.8717 36.8766 41.2687 38.3276 40.1982 39.3982C39.1275 40.4688 37.6764 41.0717 36.1624 41.075H33.8374C32.3234 41.0717 30.8723 40.4688 29.8017 39.3982C28.7312 38.3276 28.1282 36.8766 28.1249 35.3625V27.6375L34.6624 29.45C34.8824 29.5167 35.1174 29.5167 35.3374 29.45L41.8749 27.6375V35.3625ZM34.9999 20.0625L46.7999 23.75L34.9999 26.95L23.1999 23.75L34.9999 20.0625Z" fill="#263238"/>
<path d="M47.225 44.2251C47.08 44.0402 46.8858 43.8998 46.6648 43.8203C46.4437 43.7407 46.2047 43.7251 45.975 43.7751L35 46.2501L24.025 43.7501C23.7954 43.7001 23.5564 43.7157 23.3353 43.7953C23.1142 43.8748 22.92 44.0152 22.775 44.2001L17.775 50.4501C17.6299 50.6331 17.539 50.853 17.5125 51.085C17.486 51.3168 17.525 51.5517 17.625 51.7626C17.7227 51.98 17.8805 52.165 18.0799 52.2956C18.2792 52.4262 18.5117 52.4972 18.75 52.5001H51.25C51.4857 52.4995 51.7163 52.4322 51.9153 52.3061C52.1143 52.1801 52.2737 52.0003 52.375 51.7876C52.475 51.5767 52.514 51.3418 52.4875 51.11C52.461 50.878 52.3702 50.6581 52.225 50.4751L47.225 44.2251ZM21.35 50.0001L24.2375 46.3876L34.725 48.7501C34.9064 48.7875 35.0935 48.7875 35.275 48.7501L45.7625 46.4126L48.65 50.0001H21.35Z" fill="#263238"/>
</svg>
