<svg width="68" height="50" viewBox="0 0 68 50" fill="none" xmlns="http://www.w3.org/2000/svg">
<rect x="0.5" y="0.5" width="67" height="49" rx="24.5" fill="#F2F2F2"/>
<rect x="0.5" y="0.5" width="67" height="49" rx="24.5" stroke="#E4E4E4"/>
<g clip-path="url(#clip0_23_98659)">
<path d="M27.4242 23.3091C28.4707 23.3091 29.3226 24.1603 29.3226 25.2074C29.3226 26.2539 28.4707 27.1051 27.4242 27.1051C26.3771 27.1051 25.5259 26.2539 25.5259 25.2074C25.5259 24.1603 26.3771 23.3091 27.4242 23.3091Z" fill="#D35400"/>
<path d="M21.5224 18.4248L26.0968 22.9999C25.7238 23.2249 25.4133 23.5414 25.1945 23.9185L20.8469 19.5709L20.8617 19.5561C21.1803 19.2369 21.4052 18.8484 21.5224 18.4248Z" fill="#FFCD02"/>
<path d="M26.5453 27.629L22.5049 31.6695C22.3547 31.6392 22.1998 31.6237 22.0409 31.6237H20.4025L25.3258 26.6997C25.6268 27.1213 26.0504 27.4492 26.5453 27.629Z" fill="#FFCD02"/>
<path d="M12.7337 21.3994L15.3748 24.0412C15.0596 24.2601 14.6859 24.3786 14.294 24.3786C13.7869 24.3786 13.3101 24.1813 12.9512 23.823C12.5929 23.4641 12.3956 22.988 12.3956 22.4809C12.3956 22.0883 12.5142 21.7146 12.7337 21.3994Z" fill="#FFCD02"/>
<path d="M23.7293 33.9895V34.1639H12.9493V33.9895C12.9493 33.0589 13.7069 32.3013 14.6376 32.3013H22.041C22.9717 32.3013 23.7293 33.0589 23.7293 33.9895Z" fill="#FFA800"/>
<path d="M20.3824 16.392C20.7406 16.7509 20.9379 17.2277 20.9379 17.7348C20.9379 18.2418 20.7406 18.7186 20.3824 19.0769L19.2611 20.1981C19.1662 20.2931 19.1359 20.4358 19.185 20.5611C19.9063 22.4015 19.5325 24.479 18.2409 25.9483L10.8259 18.5334C12.2953 17.2418 14.3728 16.8688 16.2132 17.5893C16.3385 17.6385 16.4812 17.6088 16.5762 17.5132L17.6974 16.392C18.0563 16.0337 18.5324 15.8364 19.0395 15.8364C19.5467 15.8364 20.0234 16.0337 20.3824 16.392Z" fill="#FFA800"/>
<path d="M27.4241 22.631C28.8443 22.631 29.9999 23.7866 29.9999 25.2075C29.9999 26.6277 28.8443 27.7833 27.4241 27.7833C27.3999 27.7833 27.3756 27.7826 27.3514 27.7819L23.2032 31.9301C23.921 32.3369 24.4072 33.1073 24.4072 33.9894V34.5032C24.4072 34.6905 24.2551 34.842 24.0678 34.842H12.6105C12.4233 34.842 12.2711 34.6905 12.2711 34.5032V33.9894C12.2711 32.685 13.3331 31.6237 14.6375 31.6237H19.4436L24.9965 26.0701C24.9002 25.8001 24.8477 25.5099 24.8477 25.2075C24.8477 24.9987 24.8733 24.7967 24.9198 24.6028L20.3675 20.0499L19.8941 20.5233C20.643 22.6681 20.1029 25.0607 18.4887 26.6749C18.422 26.7415 18.3358 26.7745 18.249 26.7745C18.1621 26.7745 18.0752 26.7415 18.0092 26.6749L15.8597 24.5253C15.3991 24.8782 14.8469 25.0553 14.294 25.0553C13.6341 25.0553 12.9742 24.8048 12.4725 24.3024C11.9856 23.8156 11.7176 23.1691 11.7176 22.4809C11.7176 21.9071 11.9048 21.3623 12.2482 20.9145L10.0994 18.7657C9.96671 18.633 9.96671 18.4182 10.0994 18.2862C11.7135 16.6714 14.1062 16.1313 16.251 16.8801L17.218 15.9131C17.7049 15.4262 18.352 15.1582 19.0396 15.1582C19.7278 15.1582 20.3749 15.4262 20.8618 15.9131C21.3049 16.3562 21.5662 16.9333 21.6093 17.5535L26.771 22.7152C26.9797 22.66 27.1986 22.631 27.4241 22.631ZM29.3225 25.2075C29.3225 24.1603 28.4707 23.3092 27.4242 23.3092C26.377 23.3092 25.5258 24.1603 25.5258 25.2075C25.5258 26.254 26.377 27.1052 27.4242 27.1052C28.4707 27.1052 29.3225 26.254 29.3225 25.2075ZM22.5049 31.6695L26.5453 27.6291C26.0504 27.4493 25.6268 27.1213 25.3258 26.6998L20.4025 31.6237H22.0409C22.1998 31.6237 22.3547 31.6392 22.5049 31.6695ZM26.0969 23.0001L21.5224 18.4249C21.4052 18.8485 21.1803 19.237 20.8618 19.5562L20.847 19.5711L25.1945 23.9186C25.4133 23.5415 25.7238 23.225 26.0969 23.0001ZM23.7292 34.1638V33.9894C23.7292 33.0588 22.9716 32.3012 22.0409 32.3012H14.6375C13.7068 32.3012 12.9492 33.0588 12.9492 33.9894V34.1638H23.7292ZM20.9379 17.7347C20.9379 17.2276 20.7406 16.7508 20.3823 16.3919C20.0234 16.0336 19.5466 15.8363 19.0396 15.8363C18.5325 15.8363 18.0564 16.0336 17.6975 16.3919L16.5762 17.5131C16.4813 17.6087 16.3385 17.6384 16.2133 17.5892C14.3728 16.8687 12.2954 17.2417 10.826 18.5333L18.2409 25.9482C19.5325 24.4789 19.9062 22.4014 19.185 20.561C19.1359 20.4357 19.1662 20.293 19.2611 20.198L20.3823 19.0768C20.7405 18.7185 20.9379 18.2417 20.9379 17.7347ZM15.3748 24.0412L12.7337 21.3994C12.5142 21.7145 12.3956 22.0883 12.3956 22.4809C12.3956 22.9879 12.5929 23.464 12.9512 23.823C13.3101 24.1812 13.7869 24.3785 14.294 24.3785C14.686 24.3785 15.0596 24.26 15.3748 24.0412Z" fill="black"/>
</g>
<path d="M38.76 19.2V17.54H42.52V32H40.68V19.2H38.76ZM47.9863 28.12C48.1196 28.88 48.4263 29.4667 48.9063 29.88C49.3996 30.2933 50.0596 30.5 50.8863 30.5C51.9929 30.5 52.8063 30.0667 53.3263 29.2C53.8596 28.3333 54.1129 26.8733 54.0863 24.82C53.8063 25.42 53.3396 25.8933 52.6863 26.24C52.0329 26.5733 51.3063 26.74 50.5063 26.74C49.6129 26.74 48.8129 26.56 48.1063 26.2C47.4129 25.8267 46.8663 25.2867 46.4663 24.58C46.0663 23.8733 45.8663 23.02 45.8663 22.02C45.8663 20.5933 46.2796 19.4467 47.1063 18.58C47.9329 17.7 49.1063 17.26 50.6263 17.26C52.4929 17.26 53.7996 17.8667 54.5463 19.08C55.3063 20.2933 55.6863 22.1 55.6863 24.5C55.6863 26.18 55.5329 27.5667 55.2263 28.66C54.9329 29.7533 54.4263 30.5867 53.7063 31.16C52.9996 31.7333 52.0263 32.02 50.7863 32.02C49.4263 32.02 48.3663 31.6533 47.6063 30.92C46.8463 30.1867 46.4129 29.2533 46.3063 28.12H47.9863ZM50.8063 25.2C51.6996 25.2 52.4329 24.9267 53.0063 24.38C53.5796 23.82 53.8663 23.0667 53.8663 22.12C53.8663 21.12 53.5863 20.3133 53.0263 19.7C52.4663 19.0867 51.6796 18.78 50.6663 18.78C49.7329 18.78 48.9863 19.0733 48.4263 19.66C47.8796 20.2467 47.6063 21.02 47.6063 21.98C47.6063 22.9533 47.8796 23.7333 48.4263 24.32C48.9729 24.9067 49.7663 25.2 50.8063 25.2Z" fill="#10100E"/>
<defs>
<clipPath id="clip0_23_98659">
<rect width="20" height="20" fill="white" transform="translate(10 15)"/>
</clipPath>
</defs>
</svg>
