<svg width="70" height="70" viewBox="0 0 70 70" fill="none" xmlns="http://www.w3.org/2000/svg">
<circle cx="35" cy="35" r="35" fill="#E4E4E4"/>
<g clip-path="url(#clip0_23_98793)">
<path d="M35 70C54.33 70 70 54.33 70 35C70 15.67 54.33 0 35 0C15.67 0 0 15.67 0 35C0 54.33 15.67 70 35 70Z" fill="#62BEE7"/>
<path d="M50.5312 23.5156H20.2344V46.0469H50.5312V23.5156Z" fill="#474E5E"/>
<path d="M60.0469 50.8594H10.0625V55.6719H60.0469V50.8594Z" fill="#F3EEE4"/>
<path d="M57.6406 46.0469H12.4688V50.8594H57.6406V46.0469Z" fill="#F3EEE4"/>
<path d="M22.0938 26.6875H17.2812V42.7656H22.0938V26.6875Z" fill="white"/>
<path d="M23.7344 23.5156H15.6406V26.6875H23.7344V23.5156Z" fill="#E8DCCA"/>
<path d="M54.3594 42.875H46.2656V46.0469H54.3594V42.875Z" fill="#E8DCCA"/>
<path d="M23.7344 42.875H15.6406V46.0469H23.7344V42.875Z" fill="#E8DCCA"/>
<path d="M54.3594 23.5156H46.2656V26.6875H54.3594V23.5156Z" fill="#E8DCCA"/>
<path opacity="0.1" d="M23.7344 23.5156H15.6406V24.9375H23.7344V23.5156Z" fill="#231F20"/>
<path opacity="0.1" d="M54.3594 23.5156H46.2656V24.9375H54.3594V23.5156Z" fill="#231F20"/>
<path d="M11.5938 18.7031L35 5.79688L58.4062 18.7031V23.5156H11.5938V18.7031Z" fill="#F3EEE4"/>
<path d="M15.0938 21.4375V21L35.6563 9.625L56.3281 21V21.4375H15.0938Z" fill="#E8DCCA"/>
<path opacity="0.1" d="M35.6562 18.0469C37.0456 18.0469 38.1719 16.9206 38.1719 15.5313C38.1719 14.1419 37.0456 13.0156 35.6562 13.0156C34.2669 13.0156 33.1406 14.1419 33.1406 15.5313C33.1406 16.9206 34.2669 18.0469 35.6562 18.0469Z" fill="#231F20"/>
<path opacity="0.1" d="M36.4219 10.3906L56.3281 21.3281V21L35.6563 9.625L15.0938 21V21.4375H16.2969L36.4219 10.3906Z" fill="#231F20"/>
<path d="M35 12.3594C33.5781 12.3594 32.4844 13.4531 32.4844 14.875C32.4844 15.5313 32.8125 16.1875 33.25 16.625L36.8594 13.0156C36.3125 12.5781 35.6562 12.3594 35 12.3594Z" fill="white"/>
<path d="M33.25 16.625C33.6875 17.0625 34.3438 17.3906 35 17.3906C36.4219 17.3906 37.5156 16.2969 37.5156 14.875C37.5156 14.2188 37.1875 13.5625 36.75 13.125L33.25 16.625Z" fill="#F3EEE4"/>
<path opacity="0.1" d="M23.7344 23.5156H15.6406V24.9375H23.7344V23.5156Z" fill="#231F20"/>
<path opacity="0.1" d="M54.3594 23.5156H46.2656V24.9375H54.3594V23.5156Z" fill="#231F20"/>
<path opacity="0.1" d="M23.7344 44.625H15.6406V46.0469H23.7344V44.625Z" fill="#231F20"/>
<path opacity="0.1" d="M54.3594 44.625H46.2656V46.0469H54.3594V44.625Z" fill="#231F20"/>
<path opacity="0.1" d="M60.0469 54.3594H10.0625V55.7812H60.0469V54.3594Z" fill="#231F20"/>
<path opacity="0.1" d="M57.6406 49.5469H12.4688V50.9687H57.6406V49.5469Z" fill="#231F20"/>
<path d="M40.6875 46.0469V35.7656C40.6875 32.7031 38.1719 30.0781 35 30.0781C31.9375 30.0781 29.3125 32.5938 29.3125 35.7656V46.0469H40.6875Z" fill="white"/>
<path d="M35.3281 30.8438C36.4219 30.9531 37.4063 31.3906 38.1719 32.0469L35.3281 34.8906V30.8438Z" fill="#506268"/>
<path d="M34.6719 34.8906L31.8281 32.0469C32.5937 31.3906 33.5781 30.9531 34.6719 30.8438V34.8906Z" fill="#506268"/>
<path d="M38.7188 32.4844C39.375 33.25 39.8125 34.2344 39.9219 35.3281H35.875L38.7188 32.4844Z" fill="#506268"/>
<path d="M31.2813 32.4844L34.125 35.3281H30.0781C30.1875 34.2344 30.625 33.25 31.2813 32.4844Z" fill="#506268"/>
<path d="M35 36.0938H30.0781V46.1563H35V36.0938Z" fill="#EB5151"/>
<path d="M39.9219 36.0938H35V46.1563H39.9219V36.0938Z" fill="#C64444"/>
<path d="M52.7188 26.6875H47.9062V42.7656H52.7188V26.6875Z" fill="white"/>
<path opacity="0.1" d="M52.7188 26.6875H50.3125V42.7656H52.7188V26.6875Z" fill="#231F20"/>
<path opacity="0.1" d="M22.0938 26.6875H19.6875V42.7656H22.0938V26.6875Z" fill="#231F20"/>
</g>
<defs>
<clipPath id="clip0_23_98793">
<rect width="70" height="70" fill="white"/>
</clipPath>
</defs>
</svg>
