<svg width="72" height="50" viewBox="0 0 72 50" fill="none" xmlns="http://www.w3.org/2000/svg">
<rect x="0.5" y="0.5" width="71" height="49" rx="24.5" fill="#F2F2F2"/>
<rect x="0.5" y="0.5" width="71" height="49" rx="24.5" stroke="#E4E4E4"/>
<g clip-path="url(#clip0_23_98656)">
<path d="M16.1875 21.625C16.3125 21.8333 16.3542 22.0417 16.3542 22.2917V33.625C16.3542 33.875 16.2708 34.125 16.1459 34.3333H28.3959C29.2709 34.3333 29.9792 33.625 29.9792 32.75C29.9792 31.875 29.2709 31.1667 28.3959 31.1667C29.2709 31.1667 29.9792 30.4583 29.9792 29.5833C29.9792 28.7083 29.2709 28 28.3959 28C29.2709 28 29.9792 27.2917 29.9792 26.4167C29.9792 25.5417 29.2709 24.8333 28.3959 24.8333H28.3542C29.2292 24.8333 29.9375 24.125 29.9375 23.25C29.9375 22.375 29.2292 21.6667 28.3542 21.6667H23.3542C24.2709 20.4167 24.8125 18.8333 24.8125 17.1667V16.5833C24.8125 15.7083 24.1042 15 23.2292 15C22.3542 15 21.6459 15.7083 21.6459 16.5833V17.0417C21.6459 19.5 19.6459 21.5 17.1875 21.5C16.6875 21.5 16.2292 21.5833 16.1875 21.625Z" fill="#FFD15C"/>
<path d="M15.456 20.9172H10V35.0001H15.456C15.9107 35.0001 16.2827 34.6251 16.2827 34.1668V21.7505C16.2827 21.2922 15.9107 20.9172 15.456 20.9172Z" fill="#40596B"/>
<path d="M13.8125 33.5C14.3648 33.5 14.8125 33.0523 14.8125 32.5C14.8125 31.9477 14.3648 31.5 13.8125 31.5C13.2602 31.5 12.8125 31.9477 12.8125 32.5C12.8125 33.0523 13.2602 33.5 13.8125 33.5Z" fill="white"/>
</g>
<path d="M39.02 30.54C40.7133 29.18 42.04 28.0667 43 27.2C43.96 26.32 44.7667 25.4067 45.42 24.46C46.0867 23.5 46.42 22.56 46.42 21.64C46.42 20.7733 46.2067 20.0933 45.78 19.6C45.3667 19.0933 44.6933 18.84 43.76 18.84C42.8533 18.84 42.1467 19.1267 41.64 19.7C41.1467 20.26 40.88 21.0133 40.84 21.96H39.08C39.1333 20.4667 39.5867 19.3133 40.44 18.5C41.2933 17.6867 42.3933 17.28 43.74 17.28C45.1133 17.28 46.2 17.66 47 18.42C47.8133 19.18 48.22 20.2267 48.22 21.56C48.22 22.6667 47.8867 23.7467 47.22 24.8C46.5667 25.84 45.82 26.76 44.98 27.56C44.14 28.3467 43.0667 29.2667 41.76 30.32H48.64V31.84H39.02V30.54ZM50.7039 21.18C50.7972 19.9533 51.2706 18.9933 52.1239 18.3C52.9772 17.6067 54.0839 17.26 55.4439 17.26C56.3506 17.26 57.1306 17.4267 57.7839 17.76C58.4506 18.08 58.9506 18.52 59.2839 19.08C59.6306 19.64 59.8039 20.2733 59.8039 20.98C59.8039 21.8067 59.5639 22.52 59.0839 23.12C58.6172 23.72 58.0039 24.1067 57.2439 24.28V24.38C58.1106 24.5933 58.7972 25.0133 59.3039 25.64C59.8106 26.2667 60.0639 27.0867 60.0639 28.1C60.0639 28.86 59.8906 29.5467 59.5439 30.16C59.1972 30.76 58.6772 31.2333 57.9839 31.58C57.2906 31.9267 56.4572 32.1 55.4839 32.1C54.0706 32.1 52.9106 31.7333 52.0039 31C51.0972 30.2533 50.5906 29.2 50.4839 27.84H52.2439C52.3372 28.64 52.6639 29.2933 53.2239 29.8C53.7839 30.3067 54.5306 30.56 55.4639 30.56C56.3972 30.56 57.1039 30.32 57.5839 29.84C58.0772 29.3467 58.3239 28.7133 58.3239 27.94C58.3239 26.94 57.9906 26.22 57.3239 25.78C56.6572 25.34 55.6506 25.12 54.3039 25.12H53.8439V23.6H54.3239C55.5506 23.5867 56.4772 23.3867 57.1039 23C57.7306 22.6 58.0439 21.9867 58.0439 21.16C58.0439 20.4533 57.8106 19.8867 57.3439 19.46C56.8906 19.0333 56.2372 18.82 55.3839 18.82C54.5572 18.82 53.8906 19.0333 53.3839 19.46C52.8772 19.8867 52.5772 20.46 52.4839 21.18H50.7039Z" fill="#10100E"/>
<defs>
<clipPath id="clip0_23_98656">
<rect width="20" height="20" fill="white" transform="translate(10 15)"/>
</clipPath>
</defs>
</svg>
