<svg width="70" height="70" viewBox="0 0 70 70" fill="none" xmlns="http://www.w3.org/2000/svg">
<circle cx="35" cy="35" r="35" fill="#E4E4E4"/>
<g clip-path="url(#clip0_23_98843)">
<path d="M35.9604 44.3933C37.0856 42.9507 40.324 41.9612 41.523 40.7621C44.0673 38.2179 42.5216 34.2636 39.1291 30.8711C35.7366 27.4786 31.7824 25.9329 29.2381 28.4772C28.039 29.6762 27.0495 32.9145 25.6069 34.0399C22.6455 36.35 19.1814 35.3076 16.8964 37.5926C13.3626 41.1263 15.0285 45.5484 19.7401 50.2601C24.4518 54.9717 28.8739 56.6376 32.4076 53.1038C34.6925 50.8188 33.6502 47.3547 35.9604 44.3933Z" fill="#F9B65F"/>
<path opacity="0.3" d="M40.8336 32.834C42.0273 35.1429 42.1064 37.3987 40.4491 39.0561C39.25 40.2551 36.0118 41.2446 34.8864 42.6872C32.5762 45.6487 33.6186 49.1128 31.3336 51.3978C27.7999 54.9315 23.3778 53.2656 18.6662 48.554C17.6431 47.531 16.7642 46.5217 16.0504 45.532C16.8628 47.0577 18.1217 48.6418 19.7398 50.26C24.4515 54.9716 28.8736 56.6375 32.4073 53.1037C34.6923 50.8188 33.65 47.3545 35.96 44.3932C37.0853 42.9506 40.3237 41.9611 41.5227 40.7621C43.5881 38.6969 42.9583 35.7027 40.8336 32.834Z" fill="#F9B65F"/>
<path d="M51.8608 21.155L48.8447 18.1389L31.5671 35.4165L34.5832 38.4326L51.8608 21.155Z" fill="#935733"/>
<path opacity="0.3" d="M50.8181 20.1128L33.5405 37.3904L34.5831 38.433L51.8607 21.1554L50.8181 20.1128Z" fill="#935733"/>
<path d="M31.6534 41.6981C33.5043 41.6981 35.0048 40.1977 35.0048 38.3467C35.0048 36.4958 33.5043 34.9954 31.6534 34.9954C29.8025 34.9954 28.302 36.4958 28.302 38.3467C28.302 40.1977 29.8025 41.6981 31.6534 41.6981Z" fill="#794C2B"/>
<path opacity="0.31" d="M31.6533 41.094C33.1707 41.094 34.4007 39.864 34.4007 38.3467C34.4007 36.8294 33.1707 35.5994 31.6533 35.5994C30.136 35.5994 28.906 36.8294 28.906 38.3467C28.906 39.864 30.136 41.094 31.6533 41.094Z" fill="#794C2B"/>
<path d="M31.6534 39.6569C32.3769 39.6569 32.9635 39.0704 32.9635 38.3469C32.9635 37.6234 32.3769 37.0369 31.6534 37.0369C30.9299 37.0369 30.3434 37.6234 30.3434 38.3469C30.3434 39.0704 30.9299 39.6569 31.6534 39.6569Z" fill="#AE9676"/>
<path d="M22.4599 43.8028L26.1973 47.5401C26.5216 47.8645 27.0475 47.8645 27.3718 47.5401L27.7915 47.1205C28.1158 46.7962 28.1158 46.2702 27.7915 45.9459L24.0541 42.2086C23.7298 41.8843 23.2039 41.8843 22.8796 42.2086L22.4599 42.6282C22.1356 42.9527 22.1356 43.4785 22.4599 43.8028Z" fill="#794C2B"/>
<path d="M47.7702 23.9281L46.0722 22.23C45.5783 21.7361 45.5314 20.9512 45.963 20.4021L49.793 15.5275C50.304 14.8772 51.2686 14.8195 51.8533 15.4043L54.596 18.1469C55.1809 18.7318 55.1231 19.6963 54.4727 20.2073L49.5981 24.0373C49.049 24.4688 48.2641 24.4218 47.7702 23.9281Z" fill="#794C2B"/>
<path opacity="0.31" d="M54.596 18.1469L54.3546 17.9055C54.2683 18.0613 54.1514 18.204 54.0015 18.3218L49.1269 22.1518C48.5778 22.5834 47.7927 22.5364 47.299 22.0426L45.8423 20.5859C45.5477 21.116 45.6312 21.789 46.0723 22.2301L47.7704 23.9281C48.2642 24.422 49.0492 24.4689 49.5983 24.0374L54.4729 20.2073C55.1231 19.6962 55.1807 18.7316 54.596 18.1469Z" fill="#794C2B"/>
</g>
<defs>
<clipPath id="clip0_23_98843">
<rect width="40" height="40" fill="white" transform="translate(15 15)"/>
</clipPath>
</defs>
</svg>
