<svg width="70" height="70" viewBox="0 0 70 70" fill="none" xmlns="http://www.w3.org/2000/svg">
<circle cx="35" cy="35" r="35" fill="#E4E4E4"/>
<g clip-path="url(#clip0_23_98854)">
<path d="M35.0003 41.9934H41.4936C42.6629 41.9934 43.7937 42.412 44.6819 43.173L50.9566 48.5541C51.3766 48.9143 51.9911 48.9762 52.4579 48.6799C58.9856 44.5485 51.0679 28.2444 49.4986 25.2844C49.3322 24.9703 49.0579 23.2662 48.7246 23.1445L43.448 21.2259C42.9853 21.0575 42.4704 21.1194 42.0614 21.3923C42.0614 21.3923 40.5739 22.343 40.2405 22.343H34.449H29.9471C29.6137 22.343 27.9392 21.3923 27.9392 21.3923C27.5295 21.1194 27.0146 21.0575 26.5527 21.2259L21.2761 23.1445C20.942 23.2662 20.6684 24.9703 20.502 25.2844C18.9327 28.2444 11.015 44.5485 17.5427 48.6799C18.0102 48.9755 18.6247 48.9136 19.044 48.5541L25.3188 43.173C26.2069 42.412 27.3377 41.9934 28.507 41.9934H35.0003Z" fill="#38454F"/>
<path d="M40.2873 38.5565C41.8059 38.5565 43.0369 37.3254 43.0369 35.8068C43.0369 34.2882 41.8059 33.0571 40.2873 33.0571C38.7687 33.0571 37.5376 34.2882 37.5376 35.8068C37.5376 37.3254 38.7687 38.5565 40.2873 38.5565Z" fill="#546A79"/>
<path d="M24.4767 31.6822C25.9953 31.6822 27.2264 30.4511 27.2264 28.9325C27.2264 27.4139 25.9953 26.1829 24.4767 26.1829C22.9581 26.1829 21.7271 27.4139 21.7271 28.9325C21.7271 30.4511 22.9581 31.6822 24.4767 31.6822Z" fill="#546A79"/>
<path d="M45.0992 27.5578C45.8585 27.5578 46.474 26.9422 46.474 26.1829C46.474 25.4236 45.8585 24.8081 45.0992 24.8081C44.3399 24.8081 43.7244 25.4236 43.7244 26.1829C43.7244 26.9422 44.3399 27.5578 45.0992 27.5578Z" fill="#EBBA16"/>
<path d="M42.3494 30.3073C43.1087 30.3073 43.7243 29.6917 43.7243 28.9324C43.7243 28.1731 43.1087 27.5576 42.3494 27.5576C41.5901 27.5576 40.9746 28.1731 40.9746 28.9324C40.9746 29.6917 41.5901 30.3073 42.3494 30.3073Z" fill="#7383BF"/>
<path d="M47.8488 30.3073C48.6081 30.3073 49.2237 29.6917 49.2237 28.9324C49.2237 28.1731 48.6081 27.5576 47.8488 27.5576C47.0895 27.5576 46.474 28.1731 46.474 28.9324C46.474 29.6917 47.0895 30.3073 47.8488 30.3073Z" fill="#D75A4A"/>
<path d="M45.0992 33.057C45.8585 33.057 46.474 32.4415 46.474 31.6822C46.474 30.9229 45.8585 30.3074 45.0992 30.3074C44.3399 30.3074 43.7244 30.9229 43.7244 31.6822C43.7244 32.4415 44.3399 33.057 45.0992 33.057Z" fill="#61B872"/>
<path d="M36.8502 23.0511C36.8502 22.9191 36.8371 22.7898 36.8131 22.6654C36.789 22.541 36.7368 22.4331 36.6653 22.343C35.8603 22.343 35.2354 22.343 34.9612 22.343C34.9027 22.3478 34.8477 22.3636 34.7886 22.3636C34.7288 22.3636 34.6738 22.3485 34.6161 22.343C34.6071 22.343 34.4497 22.343 34.4497 22.343H32.9051C32.8446 22.4214 32.7965 22.5114 32.7731 22.618C32.7133 22.8916 32.7085 23.1865 32.7731 23.4917C32.9436 24.296 33.6152 24.9442 34.4257 25.0824C35.7242 25.3037 36.8502 24.309 36.8502 23.0511Z" fill="#AFB6BB"/>
<path d="M33.7567 34.1933H31.4979V31.9344C31.4979 31.6629 31.2779 31.4436 31.0071 31.4436H29.2397C28.9682 31.4436 28.7489 31.6636 28.7489 31.9344V34.1933H26.4901C26.2186 34.1933 25.9993 34.4132 25.9993 34.6841V36.4514C25.9993 36.723 26.2192 36.9422 26.4901 36.9422H28.7482V39.2011C28.7482 39.4726 28.9682 39.6919 29.2391 39.6919H31.0064C31.2779 39.6919 31.4972 39.4719 31.4972 39.2011V36.9422H33.7561C34.0276 36.9422 34.2469 36.7223 34.2469 36.4514V34.6841C34.2476 34.4132 34.0276 34.1933 33.7567 34.1933Z" fill="#546A79"/>
</g>
<defs>
<clipPath id="clip0_23_98854">
<rect width="40" height="40" fill="white" transform="translate(15 15)"/>
</clipPath>
</defs>
</svg>
