<svg width="70" height="70" viewBox="0 0 70 70" fill="none" xmlns="http://www.w3.org/2000/svg">
<circle cx="35" cy="35" r="35" fill="#E4E4E4"/>
<g clip-path="url(#clip0_23_98858)">
<path d="M35.0635 15.0623C35.0419 15.0623 35.0216 15.0648 35 15.0661C34.9784 15.0661 34.9581 15.0623 34.9365 15.0623C23.9267 15.0623 15 23.9877 15 34.9987C15 46.0098 23.9267 54.9378 34.9365 54.9378C34.9581 54.9378 34.9784 54.9352 35 54.9327C35.0216 54.9327 35.0419 54.9378 35.0635 54.9378C46.0733 54.9378 55 46.0111 55 35C55 23.989 46.0733 15.0623 35.0635 15.0623ZM36.3718 20.8491L41.5629 20.2521C43.5228 21.1197 45.2744 22.367 46.7312 23.8988L47.393 29.1877L40.9774 30.8733L36.3705 27.6661L36.3718 20.8491ZM23.2675 23.8988C24.7256 22.367 26.4772 21.1197 28.4371 20.2521L33.6282 20.8491V27.6661L29.0213 30.8733L22.6057 29.1877L23.2675 23.8988ZM20.8351 42.8026C19.7199 40.7958 19.034 38.5285 18.8664 36.1127L21.6036 31.549L28.1017 33.2561L29.7453 38.6797L25.5144 44.986L20.8351 42.8026ZM38.6886 50.7005C37.52 50.9698 36.3108 51.1248 35.0635 51.1273C35.0419 51.1273 35.0216 51.1247 35 51.1247C34.9784 51.1247 34.9581 51.1273 34.9365 51.1273C33.6879 51.1248 32.4787 50.9698 31.3114 50.7005L27.647 46.368L31.7801 40.2115H35H38.2199L42.353 46.368L38.6886 50.7005ZM44.4856 44.9848L40.2547 38.6784L41.8995 33.2548L48.3964 31.5477L51.1336 36.1114C50.966 38.526 50.2788 40.7945 49.1649 42.8014L44.4856 44.9848Z" fill="black"/>
</g>
<defs>
<clipPath id="clip0_23_98858">
<rect width="40" height="40" fill="white" transform="translate(15 15)"/>
</clipPath>
</defs>
</svg>
