<svg width="16" height="16" viewBox="0 0 16 16" fill="none" xmlns="http://www.w3.org/2000/svg">
<path d="M7.99967 1.33337C4.31688 1.33337 1.33301 4.31725 1.33301 8.00004C1.33301 11.6828 4.31688 14.6667 7.99967 14.6667C11.6825 14.6667 14.6663 11.6828 14.6663 8.00004C14.6663 4.31725 11.6825 1.33337 7.99967 1.33337ZM11.8706 8.75273C11.8706 8.93015 11.7255 9.07531 11.5481 9.07531H9.07494V11.5484C9.07494 11.7258 8.92978 11.871 8.75236 11.871H7.24699C7.06957 11.871 6.92441 11.7258 6.92441 11.5484V9.07531H4.45129C4.27387 9.07531 4.12871 8.93015 4.12871 8.75273V7.24735C4.12871 7.06993 4.27387 6.92477 4.45129 6.92477H6.92441V4.45165C6.92441 4.27423 7.06957 4.12907 7.24699 4.12907H8.75236C8.92978 4.12907 9.07494 4.27423 9.07494 4.45165V6.92477H11.5481C11.7255 6.92477 11.8706 7.06993 11.8706 7.24735V8.75273Z" fill="white"/>
</svg>
